<?xml version="1.0" standalone="yes"?>
<svg xmlns="http://www.w3.org/2000/svg" width="691" height="704">
<path style="fill:#f2f1f2; stroke:none;" d="M0 0L0 704L691 704L691 0L0 0z"/>
<path style="fill:#050308; stroke:none;" d="M292 25C286.858 34.9048 277.92 34.0583 270.329 40.4429C266.847 43.3712 265.865 47.3729 263.301 50.9105C260.57 54.6783 256.525 58.0671 253.196 61.3348C247.647 66.782 238.103 73.2577 242 82L247 78C247.451 81.3477 249.743 86.4688 247.933 89.6104C244.284 95.9436 234.733 97.3672 229 100.779C223.656 103.96 219.062 108.478 214 112.09C207.809 116.508 200.992 120.129 195.015 124.843C188.46 130.013 184.775 138.249 177.83 143.005C172.545 146.625 163.921 144.826 160 150L171 148C157.414 158.479 142.379 166.581 129.039 177.511C118.544 186.11 110.29 197.16 100.95 206.91C89.0022 219.382 76.8315 231.056 66.4784 245C61.8122 251.285 58.8802 258.529 54.5394 265C49.3658 272.713 43.4411 279.879 38.8758 288C30.2435 303.355 23.7118 322.588 21.2083 340C19.285 353.377 20.912 367.312 22.1242 380.7C23.9296 400.639 26.0329 419.566 31.5787 439C35.6112 453.131 39.3952 469.157 46.6829 482C50.5454 488.807 56.5764 494.606 61.1412 501C68.0107 510.622 76.0945 521.818 87 527C83.9107 527.348 81.0159 527.162 78 528C80.3133 532.237 84.505 532.969 89 534C84.6356 535.598 80.3808 534.881 76 536C78.5276 540.865 83.9888 543.176 89 545C89.4253 548.441 92.987 548.791 96 550.245C103.489 553.861 110.95 558.837 119 561C114.826 562.199 111.258 561.226 107 561.039C97.9958 560.645 88.9757 559.235 80 559.015C75.174 558.896 68.793 557.598 67 563C89.7856 567.419 112.834 572.172 136 574C120.369 578.622 102.868 577.152 87 576.089C82.8676 575.813 78.9126 577.765 74.9606 577.353C70.2555 576.864 65.7454 574.64 61 574C63.0628 577.724 66.0311 578.788 70 580C60.863 582.701 49.5629 583.245 40 584L40 588C58.0261 586.565 75.7525 583.753 94 585.09C105.751 585.952 117.282 590.487 129 592C120.752 594.608 111.576 594.488 103 595.089C89.4159 596.042 75.5511 596.558 62 598C64.4174 605.283 77.9389 600.01 84 600C103.267 599.969 121.926 595.203 141 594.093C147.196 593.733 158.375 597.935 161 590C178.426 590.144 195.546 594.999 213 595C219.227 595 228.713 596.246 231 589C235.932 589.637 252.299 595.498 251 587C260.356 585.263 269.597 585.888 279 585.996C283.671 586.05 287.561 586.423 290 582C283.111 578.685 272.647 579.158 265 579C270.094 576.527 276.092 573.425 281.981 574.268C284.964 574.695 286.357 576.697 288.454 578.574C294.086 583.613 295.918 585.771 298 593L293 593C294.014 596.469 296.723 596.935 300 598C297.894 598.644 296.205 598.906 294 599C296.234 602.548 300.203 602.998 304 604.425C311.339 607.184 318.185 608.503 324 614C314.885 613.812 305.984 610.839 297 609.439C291.433 608.572 285.62 609 280 609C280.997 612.072 283.279 614.255 285 617C280.28 617.8 275.407 619.128 271 621C274.225 623.538 278.006 623.683 282 624.272C288.333 625.205 294.71 626.321 301 627.463C318.883 630.709 335.203 641.372 353 644C344.23 646.586 333.726 642.751 325 641.004C320.753 640.153 316.15 639.44 317 645C297.458 645 278.321 647.013 259 647L259 650C262.565 650.269 264.257 650.832 266 654C269.635 653.844 273.371 652.808 277 653.224C283.039 653.915 288.896 656.217 295 656.829C319.372 659.276 343.564 662.237 368 663.911C382.858 664.928 398.117 665.638 413 665.776C416.428 665.808 419.605 664.383 423 664.414C432.476 664.498 441.645 666.224 451 666.91C457.006 667.35 463.033 666.154 469 667.174C486.883 670.229 506.917 672.306 525 669.729C531.245 668.839 539.568 670.284 543 664L519 663C526.726 660.385 535.111 659.745 543 657.575C550.509 655.509 557.503 651.902 565 649.924C571.365 648.245 580.31 649.381 584 643C576.534 643.154 569.39 645.702 562 644C571.882 640.217 582.655 639.006 593 637L588 643C594.881 642.694 600.142 635.393 597 629C606.248 626.28 613.849 619.601 621 613.424C645.424 592.326 661.498 561.664 665.286 530C665.938 524.548 667.689 518.913 667.669 513.424C667.656 509.894 666.348 506.515 666.09 503C665.158 490.274 664.703 476.744 665.015 464C665.505 443.966 669.309 423.971 664.985 404C661.244 386.72 653.711 369.882 648.62 353C646.272 345.214 646.692 336.513 643.649 329C641.668 324.11 639.878 318.548 637.225 314C633.326 307.317 628.102 300.437 625.699 293C623.926 287.511 626.355 281.452 627.246 276C628.061 271.012 627.65 265.877 629.04 261C632.223 249.832 638.135 238.9 637.982 227C637.877 218.909 635.274 206.349 627.985 201.743C623.532 198.929 619 200.915 615.015 203.539C606.21 209.338 602.461 219.25 595.83 227C593.967 229.177 591.165 233.577 588.196 234.261C585.234 234.943 580.775 230.945 578 229.95C570.826 227.378 562.563 225.983 555 225.174C538.642 223.422 522.269 222.337 506 219.384C493.68 217.148 481.686 212.986 469.09 212.312C459.109 211.778 447.967 213.661 438 214.718C429.226 215.649 419.91 213.796 411 214.015C407.478 214.101 402.926 215.845 399.515 214.829C396.852 214.037 395.375 211.168 394 209C397.554 211.342 400.784 213.239 405 214C402.898 204.215 387.311 197.155 380.015 191.193C373.233 185.651 369.175 178.01 362.826 172.149C359.01 168.625 354.11 167.486 350 164.501C343.555 159.82 338.032 153.417 332 148.181C325.593 142.619 316.155 139.579 311.905 131.996C309.898 128.415 309.095 124.312 306.581 121.004C301.51 114.332 292.854 107.935 295.322 98.0401C296.525 93.2143 303.215 92.1591 303.508 87.0116C303.751 82.7412 298.132 81.2881 295 80C296.517 76.3732 295.408 73.7598 295.797 70C296.316 64.9823 298.958 60.115 298.723 54.9962C298.473 49.5431 296.047 44.611 296 39L286 36C288.983 32.9434 293.198 29.5793 292 25z"/>
<path style="fill:#291939; stroke:none;" d="M261 87C261.479 92.4536 262.841 96.484 262 102L260 93C256.857 97.2121 252.423 101.982 251 107C256.342 109.963 261.388 112.992 265 118C257.705 118.053 252.268 111.581 245 113C246.74 118.512 250.665 122.547 247 128C250.415 131.708 253.893 135.401 256 140C249.781 137.1 246.305 131.114 241 127C245.345 138.217 257.632 145.753 260 158C251.987 152.308 248.264 142.742 240.826 136.557C235.64 132.245 228.667 132.268 223 129C217.915 131.556 211.732 130.848 207.059 133.653C203.988 135.496 203.343 138.901 200.687 141.009C197.269 143.723 192.612 144.77 189 147.39C181.058 153.148 174.562 160.386 167 166.576C156.159 175.448 144.446 182.734 134 192.17C124.031 201.174 115.909 211.497 107.64 222C96.0403 236.732 84.0205 252.226 75.5147 269C66.4184 286.939 63.1061 308.473 59.1998 328C57.629 335.853 57.9585 348.699 53 355L57 373C60.38 364.945 57.2531 354.665 60 346C60.9926 349.689 60.0537 353.18 60.0039 357C59.9112 364.098 60.1111 370.966 61 378C63.0856 373.03 61.9979 366.351 62 361C62.0031 353.052 63.0189 344.821 64.4637 337C66.2952 327.086 69.9021 317.561 72.9722 308C77.2335 294.73 82.7114 282.62 88.5509 270C92.6096 261.228 96.4748 252.029 102.079 244.09C105.123 239.776 109.04 236.08 112.386 232C119.704 223.075 127.631 208.865 139 205C126.559 217.016 113.806 229.789 103.63 244.001C97.2774 252.873 93.4521 263.263 88.7415 273C77.2027 296.85 67.0183 323.429 64.1736 350C62.1333 369.058 65.1157 387.729 70 406C72.2354 400.673 71.6177 392.822 72.0856 387C73.2644 372.335 74.2982 357.323 77.8735 343C79.3677 337.014 80.2789 331.028 84 326C84.8993 328.124 84.8764 328.101 87 329C85.4713 333.083 85.7072 337.194 84.5208 341.285C81.3664 352.166 77.1883 363.872 75.2593 375C73.6224 384.442 73.3827 394.446 72.9606 404C72.6472 411.097 70.5913 418.925 71.6073 426C73.0545 436.08 78.5077 445.889 82.6914 455C95.1048 482.035 111.672 505.877 129 530C130.147 523.115 122.139 513.488 119.684 507C112.049 486.821 103.847 466.953 98.4784 446C89.888 412.475 89.7551 375.796 97.5 342C100.539 328.739 105.981 316.748 110.452 304C113.438 295.488 111.903 286.163 116 278L115 290C121.799 279.893 124.873 266.842 130.629 256C140.518 237.372 152.729 220.664 164.038 203C167.129 198.172 170.299 192.411 172.195 187C173.569 183.078 173.256 179.313 177 177C176.22 182.676 173.506 187.534 172 193C176.436 190.892 180.017 187.466 185 187C178.78 190.669 172.938 194.207 168.39 200C162.568 207.417 159.97 217.619 155.752 226C146.945 243.502 138.999 259.613 135 279C133.453 272.875 136.141 266.841 137.975 261C140.353 253.427 143.228 245.992 147.029 239C151.861 230.11 158.254 221.139 160 211C153.508 218.445 148.685 227.475 143.775 236C136.04 249.43 128.512 262.572 122.796 277C120.067 283.89 116.072 290.715 114.518 298C113.675 301.951 114.211 306.005 113.83 310C112.761 321.232 111.101 332.961 109 344C107.956 349.484 108.98 355.752 105 360C108.006 347.373 107.592 333.899 109.129 321.039C109.754 315.804 111.955 311.472 112 306C106.12 313.859 103.744 325.63 101.265 335C97.8269 348.002 97.1144 360.73 95.8302 374C94.8819 383.8 93.6046 393.073 94.0394 403C94.523 414.045 97.131 424.989 98 436C102.422 425.461 98.4744 411.048 98 400L100 400C100.313 407.283 102.051 414.717 101.871 422C101.66 430.534 99.6998 439.479 101.518 448C102.84 454.2 106.535 459.278 109 465C107.814 463.814 107.416 463.472 106 463C108.189 472.462 112.143 480.983 115.576 490C119.824 501.159 123.849 512.381 129.363 523C132.333 528.718 134.548 537.083 139.39 541.49C143.541 545.267 150.917 546.703 156 549C171.193 555.866 188.29 560.76 205 561.911C213.931 562.526 223.021 561 232 561C227.875 551.426 222.314 542.446 217.89 533C210.775 517.811 204.215 501.843 198.695 486C193.049 469.796 190.534 451.878 187.715 435C185.879 424.01 183.228 413.111 182.17 402C180.549 384.979 182.75 368.94 183.91 352C184.252 347.018 183.682 341.992 184.055 337.015C184.428 332.033 187.162 328.234 186.96 323C186.62 314.186 183.281 306.355 181 298C185.77 302.936 187.452 312.286 188 319C190.389 313.359 190.237 306.064 191.449 300C193.021 292.141 196.972 282.95 196.867 275C196.702 262.382 193.262 249.685 193 237C197.005 247.616 197.115 259.79 198 271C201.411 265.605 202.577 258.92 204.896 253C207.295 246.877 211.562 241.344 213.363 235C215.104 228.864 214 221.337 214 215L216 215L216 229C218.395 224.494 218.386 218.898 219.885 214C221.482 208.78 224.37 204.161 226 199C222.405 200.391 219.846 202.41 217 205L216 204C220.213 200.157 225.719 197.492 229.215 192.957C233.458 187.453 235.479 180.335 241 176C240.969 186.783 235.562 189.114 229.637 197.039C226.12 201.744 223.028 208.236 222 214C224.782 210.677 226.735 206.701 229 203C229.768 211.815 227 220.133 227 229L225 229C225 222.431 226.67 216.448 227 210C222.194 215.822 218.767 225.758 216.633 233C215.855 235.642 215.926 238.477 214.683 240.985C212.798 244.789 209.044 247.137 207.188 251.015C202.611 260.58 201.502 271.022 198.456 280.91C194.247 294.576 190.249 309.502 189.725 324C189.374 333.675 191.744 344.632 194 354C189.708 348.034 189.15 338.278 189 331C187.794 333.873 188.042 336.92 187.561 340C185.768 351.48 186.653 361.624 189 373C187.348 370.315 186.483 368.114 186 365C183.857 370.061 182.786 379.331 183.468 384.83C183.814 387.617 185.613 390.217 186.242 393.004C189.034 405.369 191.95 417.7 195.036 430C196.228 434.75 198.281 439.129 199 444C193.352 435.02 191.472 424.224 189.185 414C188.045 408.9 186.23 404.276 186 399C184.37 402.892 185.491 406.911 185.95 411C186.998 420.339 189.922 429.621 190 439C190.779 437.231 190.912 435.964 191 434L193 434C193.014 454.84 203.774 472.187 211 491C203.719 484.758 200.569 472.701 197 464C194.906 470.896 199.726 482.428 202.193 489C208.679 506.275 215.949 523.252 223.692 540C226.455 545.977 228.942 554.867 233.904 559.397C235.814 561.139 238.577 561.087 241.001 561.424C248.929 562.525 255.518 560.799 263 558.255C265.69 557.34 269.635 556.148 271.263 553.61C273.095 550.754 270.273 547.408 268.857 545C264.436 537.482 258.8 530.841 254.923 523C248.545 510.099 242.736 497.021 239.34 483C236.987 473.287 237.404 463.86 236.961 454C236.688 447.951 235.712 442.107 235.684 436C235.547 406.204 243.358 376.881 249.482 348C250.593 342.76 249.663 337.302 250.17 332C251.085 322.422 254.224 313.816 259.877 306.001C264.167 300.068 270.384 296.235 275.625 291.255C278.244 288.766 280.134 285.658 283.015 283.418C285.74 281.3 289.083 280.253 292 278.444C297.527 275.018 302.709 270.905 308 267.128C313.444 263.242 318.324 258.514 324 254.951C328.481 252.139 333.548 250.353 337.942 247.381C341.464 244.999 342.293 241.224 345.228 238.379C348.786 234.929 353.614 233.098 357.741 230.497C360.052 229.041 361.726 226.831 364.054 225.387C369.591 221.95 376.86 222.516 382 219C376.878 215.012 373.454 209.668 369 205L372 204C373.33 206.597 374.436 207.591 377 209C372.243 197.39 360.003 189.764 351.06 181.588C346.159 177.107 342.405 171.229 337 167.273C334.596 165.513 331.638 165.242 329 163.958C324.961 161.994 321.316 158.856 318 155.866C309.397 148.108 302.283 138.028 295.088 129.005C292.702 126.013 289.212 123.252 287.366 119.935C284.886 115.479 284.7 109.783 282.958 105C281.918 102.145 281.017 96.4765 278 96C281.187 89.7249 282.44 81.0316 283 74L286 75C288.312 71.3843 290.757 68.139 292 64C290.584 64.472 290.186 64.8137 289 66C291.355 59.4154 294.738 53.8555 290.772 47.0193C289.366 44.5974 287.059 42.1729 283.999 42.4661C281.218 42.7325 278.962 45.0837 277.184 47.0193C274.115 50.3605 271.952 54.3967 269.102 57.9105C266.675 60.9024 263.5 63.351 262.009 67.0038C260.788 69.9974 260.642 73.8909 261.509 77C262.712 81.3115 265.889 84.206 261 87M247 106C242.287 110.075 237.091 112.434 232 115.85C225.516 120.199 220.162 125.612 213 129C216.987 130.537 219.976 127.727 224 128.059C230.164 128.567 236.276 131.952 242 134C239.615 128.569 235.3 124.434 233 119L240 122L236 116C239.747 118.608 243.03 121.706 247 124C246.089 118.948 239.938 109.228 249.976 111.044C251.668 111.35 253.295 111.75 255 112C252.642 109.426 250.048 107.702 247 106z"/>
<path style="fill:#050308; stroke:none;" d="M268 170C265.556 175.74 262.397 181.721 261.626 188C260.73 195.286 262.167 203.569 261.985 211C261.821 217.692 260.16 224.443 258.905 231C256.518 243.476 248.44 253.059 245 265C241.181 265.754 239.501 268.873 237.294 272C233.337 277.607 230.214 283.499 228 290C226.521 289.014 226.797 289 225 289C220.841 301.786 219.626 315.402 215 328L214 324C203.486 333.637 203 350.659 203 364C201.138 357.699 202 350.542 202 344L200 344C200 365.533 201.019 386.729 204.586 408C205.82 415.359 206.366 422.98 209 430C212.497 425.384 211 417.606 211 412C212.182 414.43 212.73 416.313 213 419C221.768 414.024 222 400.85 222 392C223.137 394.394 223.77 395.626 226 397C228.117 385.598 227.298 373.555 228.09 362C229.354 343.532 232.477 325.691 237.975 308C240.661 299.354 242.42 287.567 249 281C247.723 282.915 247.723 282.085 249 284C256.024 276.666 259.908 267.503 263 258C258.12 260.452 255.869 266.026 254 271L252 265L250 266L250 264L248 264L248 266C247.02 257.959 255.388 249.138 258.528 242C261.1 236.15 261.444 229.273 262.083 223C262.617 217.759 264.314 212.267 263.778 207C263.386 203.15 263.105 194.713 268 194L270 183C273.864 185.906 275.896 190.511 280 193C280.931 190.259 281.819 188.896 284 187C285.235 197.391 287.749 208.561 292.475 218.015C294.465 221.994 296.023 225.804 300 228C299.481 215.943 294.866 203.552 291.573 192C290.079 186.76 289.081 180.768 285 177L285 181C283.284 178.271 274.55 167.915 273 175C271.416 172.988 270.033 171.54 268 170M206 181C201.988 180.94 199.96 183.131 197.039 185.835C193.341 189.258 190.015 193.033 185.999 196.101C181.238 199.739 176.058 202.076 174 208C172.521 207.014 172.797 207 171 207C171.822 211.27 170.619 214.785 170 219C175.047 212.662 174.384 207.205 183 204C183.613 205.662 184.043 206.483 185 208C186.736 207.154 193.328 205.808 189 208C190.377 208.911 191.44 209.404 193 210C191.738 213.018 191.258 214.815 192 218C181.877 223.911 180.051 241.097 176.73 251.325C175.133 256.242 171.745 260.776 173 266L169 270C169.598 271.195 169.466 270.977 171 272C169.424 273.558 168.235 275.152 167 277L170 278C173.903 267.548 178.066 256.754 181 246L184 247C184.986 245.522 185 245.797 185 244C185.493 251.679 181.048 260.71 178.67 268C174.241 281.575 171.258 295.354 167.23 309C165.023 316.474 161.475 325.158 163 333C165.64 327.516 166.144 320.908 167.5 315C169.265 307.311 171.394 299.676 173.235 292C177.861 272.717 184.202 251.887 192.778 234C196.272 226.712 199.099 216.558 205 211C204.302 206.283 206.27 203.351 207.758 199C210.255 191.704 213.783 180.62 213 173C209.4 174.84 207.726 177.383 206 181M252 182C248.112 190.315 246.147 198.935 245 208C249.194 203.908 249.726 196.482 251.64 191C252.881 187.448 254.323 185.246 252 182z"/>
<path style="fill:#291939; stroke:none;" d="M113 210C95.3997 227.971 79.1767 247.409 64.8218 268C57.4807 278.53 50.2642 287.961 45.4491 300C41.5825 309.668 39.6808 319.892 37.3488 330C36.0546 335.61 33.8702 341.288 33.1844 347C30.8778 366.214 33.5736 386.202 36.6752 405C39.2448 420.574 40.6002 435.314 46.9506 450C50.7122 458.699 56.5597 466.314 61.9637 474C69.357 484.515 76.4693 494.532 85.7006 503.464C93.1841 510.704 99.1428 518.147 108 524C104.525 512.8 97.7632 504.669 91.5471 495C87.1687 488.189 84.1033 480.392 80.8611 473C76.0043 461.926 70.5234 450.474 66.7384 439C65.0088 433.757 65.839 428.2 64.3627 423C62.4806 416.37 58.2917 410.002 55 404C58.7629 406.175 60.339 409.049 62 413C64.1954 406.879 60.1545 399.161 59.1451 393C58.3417 388.097 58.6898 382.785 57.5293 378C53.9076 363.068 47.3236 347.595 47 332L49 332C49.0462 337.575 49.2845 347.414 54 351C54.0856 340.664 57.0198 330.123 58.9992 320C63.6103 296.419 69.7524 274.604 82.4668 254C88.8607 243.639 96.2316 233.384 103.989 224C106.95 220.418 113.104 214.696 113 210z"/>
<path style="fill:#f2f1f2; stroke:none;" d="M614 210C608.579 218.203 602.756 226.483 596.41 234C593.83 237.056 590.881 241.105 587.001 242.573C582.48 244.284 579.645 239.749 575.961 238.088C571.796 236.211 566.467 236.226 562 235.389C547.075 232.592 532.122 228.683 517 227.171C509.12 226.383 500.917 227 493 227L494 224C487.062 224 479.861 222.576 473 223.094C464.997 223.699 457.022 226.027 449 226.829C442.998 227.43 436.948 227.051 431 228.386C419.78 230.904 409.362 236.945 398 239.486C375.78 244.455 354.732 246.324 335 258.939C320.417 268.262 310.945 281.889 298.996 294C293.545 299.525 288.247 305.111 282.424 310.255C278.447 313.769 273.657 316.904 270.303 321.039C267.909 323.991 267.358 327.63 265.812 331C264.378 334.125 261.856 336.74 260.738 340C259.431 343.813 259.948 348.999 260.018 353C260.196 363.233 263.156 372.962 264.576 383C267.301 402.275 269.608 420.843 279.427 438C289.173 455.028 300.894 471.918 313.435 487C322.69 498.13 334.531 510.014 341 523C331.403 515.188 323.633 502.745 315.985 493C301.679 474.77 284.268 455.481 275 434C272.81 441.215 279.957 450.973 281.765 458C283.778 465.826 287.399 472.725 290.833 480C304.151 508.21 324.312 530.528 351 547C346.956 538.275 337.895 531.585 331.004 525.089C326.854 521.178 322.519 517.986 322 512C328.425 515.714 330.512 520.806 335.172 526.025C338.718 529.995 343.16 533.02 346.715 537.004C353.689 544.82 359.606 553.415 368.001 559.768C384.19 572.018 402.003 581.968 420 591.258C425.421 594.057 430.431 597.626 436 600.135C445.462 604.397 453.084 610.024 462 615.147C465.794 617.328 469.66 616.994 472 621C486.236 620.389 500.778 620.907 515 619.911C524.689 619.231 534.255 616.757 544 616.089C550.644 615.635 557.369 616.492 564 615.829C582.926 613.937 604.323 606.855 619.985 595.779C626.325 591.296 629.404 583.86 634.039 577.83C648.91 558.487 660.725 537.223 660.425 512C660.376 507.865 658.671 504.061 658.184 500C657.41 493.532 657.268 486.56 656.965 480.039C656.585 471.843 658.348 463.21 658.911 455C659.676 443.821 658.945 432.115 657.829 421C657.037 413.1 653.699 405.588 651.633 398C650.405 393.486 650.539 388.595 649.501 384C647.946 377.116 645.062 370.785 643.286 364C640.347 352.773 641.236 339.543 636.176 329C632.71 321.779 628.007 313.651 623.532 307C620.774 302.899 616.363 299.05 615.434 294C614.319 287.943 618.316 281.663 619.841 276C621.179 271.03 620.705 266.039 621.428 261C622.99 250.123 624.982 239.037 625 228C625.006 224.071 626.539 215.852 623.972 212.603C622.117 210.255 616.748 210.51 614 210z"/>
<path style="fill:#050308; stroke:none;" d="M173 221C165.131 249.83 155.584 278.555 146.505 307C144.069 314.632 141.888 322.351 139.498 330C138.109 334.448 137.361 338.632 134 342L135 338L131 339C134.018 315.123 142.734 292.668 150.792 270C154.692 259.03 161.465 246.71 162 235C158.422 239.783 157.3 246.409 155.308 252C151.617 262.362 147.484 272.559 144 283C140.012 294.953 134.424 306.681 131.665 319C127.996 335.381 127.248 352.384 126.24 369C125.915 374.366 124.079 379.612 124.079 385C124.077 404.503 127.52 424.645 129.845 444C131.919 461.27 136.45 479.331 141.438 496C143.33 502.321 145.876 510.818 152 514C152.644 511.894 152.906 510.205 153 508L149 510C148.339 506.504 143.048 496.942 146 495C143.55 490.615 144.42 486.811 144.157 482C143.887 477.066 142.648 472.604 141 468C139.7 468.65 140 468.147 140 470C138.665 466.598 137.75 463.663 138 460C134.106 455.355 134.146 444.918 133.069 439.004C131.648 431.197 131.665 423.832 130.826 416C130.112 409.326 128.019 402.754 127.775 396C127.573 390.424 129 384.68 129 379C130.281 380.967 134.409 392.388 136 385C137.479 385.986 137.203 386 139 386C139.906 374.616 146.032 365.573 149.844 355C152.061 348.852 153.475 343.017 146 341C146 343.085 146.138 342.724 144 343L146 346L151 345C147.052 349.476 140.742 351.33 136 355C136.822 350.067 137.627 344.806 139 340L141 338C141.71 336.296 140.29 333.704 141 332C142.387 328.67 145.125 325.498 146 322C146.669 319.325 144.947 315.527 146 313C146.605 311.548 148.299 310.401 149 309L148 307C148.39 305.44 150.578 303.687 151 302C151.694 299.226 150.87 296.543 152 294C152.538 292.79 154.407 292.187 155 291C156.7 287.6 155.851 284.554 155 282L156 282C157.512 277.465 157.925 271.844 161 268L162 269C162.168 265.378 162.597 262.763 165 260C164.445 251.251 169.669 241.576 171.743 232.996C172.692 229.068 174.401 224.907 173 221M292 222C291.499 224.686 291.117 227.27 291 230L293 230C292.993 227.164 293.098 224.613 292 222M119 232C110.028 241.162 101.149 253.84 100 267C105.245 260.539 110.778 250.66 114 243C115.635 243.545 115.455 243.365 116 245C117.064 243.119 117.237 241.985 115 242C116.416 238.755 119.192 235.518 119 232M271 240L268 253C271.302 249.733 272.698 245.267 276 242L275 248C281.198 245.114 288.913 239.041 290 232C283.71 233.956 277.425 239.195 271 240M382 253C384.124 252.101 384.101 252.124 385 250C382.876 250.899 382.899 250.876 382 253M334 493C330.778 490.359 328.061 488.096 324 487C324.736 489.562 325.519 489.983 328 491C326.723 499.534 338.028 507.873 342 515C340.313 514.782 339.684 514.776 338 515C345.043 519.543 349.107 524.197 354.116 531C357.435 535.508 360.106 541.012 366 542C366.023 544.685 365.94 547.44 366.89 550C370.246 559.044 377.345 560.997 386 561C389.976 561.002 394.073 561.267 398 560.532C406.32 558.977 415.379 554.876 424 557.56C429.475 559.265 434.901 563.235 440 565.895C449.079 570.631 458.41 574.958 468 578.575C483.094 584.267 498.84 585.283 514 590.355C531.414 596.181 554.276 607.592 573 602.211C582.372 599.517 592.68 591.058 600 584.79C612.854 573.784 622.661 560.376 631.309 546C634.236 541.135 638.42 537.06 641.004 532C652.696 509.105 655.029 484.131 654.455 459C654.21 448.252 653.727 437.616 651.101 427C649.578 420.842 646.764 415.054 644.884 409C642.315 400.724 640.795 392.043 637.547 384C632.884 372.453 626.726 362.673 628 350L632 353C632.316 347.782 628.299 343.742 626.345 339C622.014 328.487 619.325 317.528 615.251 307C613.935 303.601 610.836 296.264 606.318 296.346C604.405 296.38 604.256 298.639 604.387 300.045C604.735 303.767 606.81 307.483 608 311C605.209 308.739 603.067 305.789 600 304L601 307C596.674 302.859 592.054 297.918 587.039 294.649C584.776 293.173 582.144 292.607 579.911 291.019C576.073 288.289 572.929 284.719 569 282.105C561.536 277.139 552.202 273.344 544 269.721C538.728 267.392 526.073 260.79 522 267C538.391 265.296 548.419 278.306 562 284C555.196 283.694 549.103 279.063 543 276.312C531.955 271.332 519.676 266.834 508 263.594C498.719 261.019 489.368 261.177 480 259.536C460.233 256.074 441.06 255 421 255C412.875 255 404.031 254.023 396 255.325C368.62 259.765 348.536 275.463 331.88 297C318.143 314.764 303.027 334.785 297.444 357C293.327 373.385 293.973 392.773 298.63 409C301.432 418.761 306.977 427.529 310.536 437C314.444 447.397 315.851 458.659 319.927 469C323.358 477.705 329.135 485.117 334 493M264 256L263 261C265.841 259.457 266.751 258.163 264 256z"/>
<path style="fill:#7d2b4f; stroke:none;" d="M621 349C619.203 349 619.479 349.014 618 350C617.42 346.359 618.282 342.538 617.143 339C615.593 334.186 611.865 330.092 609.025 326C599.521 312.309 587.195 301.664 571 297C584.915 314.245 615.983 324.722 616 350L614 350C613.987 329.922 589.084 315.627 575 304.083C570.134 300.095 564.728 296.834 562 291L566 291C555.894 282.626 541.203 278.154 529 273.82C521.338 271.099 513.893 267.498 506 265.478C494.629 262.569 482.603 262.261 471 260.816C458.482 259.258 446.704 258 434 258C437.411 268.287 448.763 276.428 448 288C439.066 281.42 432.47 268.95 431 258C407.833 258 387.307 257.228 366 267.904C352.223 274.808 341.815 288.207 332.525 300.039C324.811 309.863 316.201 320.936 310.402 332C308.405 335.81 307.453 340.082 305.688 344C303.296 349.311 300.583 354.278 299.236 360C296.338 372.309 297.237 387.594 299.324 400C301.496 412.91 308.684 423.867 312.986 436C318.208 450.729 319.916 466.56 328.436 480C337.414 494.164 350.305 505.215 359.781 519C363.751 524.777 367.069 531.09 368.485 538C369.78 544.315 368.454 549.685 373.468 554.772C377.186 558.543 382.115 558 387 558C399.264 558 414.221 549.104 426 554.417C441.92 561.596 456.301 571.143 473 576.922C487.158 581.822 501.825 583 516 587.671C532.105 592.977 550.719 601.918 568 599.816C581.505 598.173 595.829 584.182 605 575C614.849 565.139 621.658 554.59 629.09 543C631.742 538.865 635.21 535.275 637.64 531C641.578 524.074 644.679 514.671 646.845 507C650.368 494.523 650.673 481.798 651.829 469C652.197 464.928 651.216 461.043 651.039 457C650.628 447.604 650.416 438.24 648.335 429C646.575 421.184 643.132 413.629 640.671 406C638.428 399.051 637.21 391.834 634.536 385C629.854 373.032 623.917 361.61 621 349z"/>
<path style="fill:#050308; stroke:none;" d="M474 262C474.002 276.255 477.447 293.627 483.806 306.424C486.529 311.902 487.081 316.923 494 318C494.511 319.952 494.733 320.457 496 322C489.593 331.106 487.305 345.23 493.994 354.895C497.123 359.416 502.073 360.465 504 366C509.96 365.69 515.212 363.696 515 357C513.339 357.613 512.517 358.043 511 359C515.444 352.691 523.704 347.985 526.953 341.005C528.471 337.743 526.629 334.887 522.982 335.337C519.869 335.722 517.885 337.749 516 340C517.982 339.535 518.406 339.296 520 338C521.171 345.964 507.919 355.606 502 360C503.557 352.838 506.821 347.024 513 343C506.727 340.656 500.517 349.621 497 354C489.212 343.893 491.282 329.23 501 321C501.321 325.205 505.174 330.81 509.308 325.566C510.915 323.527 510.275 320.407 510.708 318C511.418 314.059 513.373 310.603 515 307C520.148 311.608 521.637 313.363 519 320C523.025 316.63 524.751 312.326 523.772 307.005C523.387 304.915 522.37 302.324 519.891 302.164C515.402 301.874 509.438 307.299 505 308.582C501.376 309.629 498.4 308.121 495 307C496.186 305.814 496.528 305.416 497 304C491.926 305.484 493 311.584 493 316C486.217 309.709 490 300.418 490 292C485.994 294.202 485.562 297.676 485 302C479.969 290.309 476.554 274.71 476 262L474 262M516 286C519.802 287.427 522.597 287.268 526 290L534 285L534 283C527.803 281.22 521.684 283.357 516 286M401 287L399 287C398.232 285.686 398.314 285.768 397 285C398.609 292.683 403.918 297.843 411 301C409.132 296.441 407.092 293.44 410 289C407.479 285.83 403.987 282.928 401 287z"/>
<path style="fill:#7a6f29; stroke:none;" d="M507 289L507 295C509.866 293.838 509.995 292.184 512.167 290.333C515.443 287.543 521.594 288.905 525 290C521.406 283.545 512.803 288.017 507 289z"/>
<path style="fill:#ae8646; stroke:none;" d="M412 287C407.044 295.118 410.426 303.966 419 308C418.999 299.943 418.827 292.287 412 287z"/>
<path style="fill:#9b773f; stroke:none;" d="M512 294L523 291C522.556 294.046 521.319 296.256 520 299C524.508 297.357 525.58 294.619 526 290C524.42 289.316 524.223 289.195 523 288C518.027 289.185 513.275 288.156 512 294z"/>
<path style="fill:#7a6f29; stroke:none;" d="M409 289C407.878 291.808 407.569 293.306 409 296C409.633 293.401 409.87 291.53 409 289z"/>
<path style="fill:#332b12; stroke:none;" d="M525 289L526 290L525 289z"/>
<path style="fill:#897631; stroke:none;" d="M506 290C502.23 295.536 498.317 300.632 496 307C497.877 307.938 499.859 309.198 502.005 309.372C508.361 309.887 519.719 303.528 520 297C522.545 295.365 522.779 294.007 523 291C519.107 291.39 515.688 292.755 512 294L513 290L507 295C507.299 292.608 507.32 291.956 506 290z"/>
<path style="fill:#050308; stroke:none;" d="M375 293C375 297.438 374.967 301.662 376 306C371.848 303.335 368.839 294.656 364.058 293.921C361.09 293.465 360.822 297.555 362.032 299.317C363.183 300.991 365.352 301.869 366.792 303.274C369.837 306.243 370.745 309.669 375 311L374 307L378 308L377 295C380.702 297.664 383.149 301.672 387 304C385.469 299.385 381.443 295.86 381 291L375 293M416 291C418.405 293.123 420.955 293.998 424 295C422.044 303.537 430.301 310.264 437 314C437.062 308.775 437.852 304.324 444 306C445.194 290.589 426.241 291.462 416 291z"/>
<path style="fill:#9b773f; stroke:none;" d="M417 295L418 298C418.685 296.752 418.749 296.452 419 295L417 295z"/>
<path style="fill:#634928; stroke:none;" d="M410 299L411 300L410 299z"/>
<path style="fill:#8e4e48; stroke:none;" d="M419 299L419 307C420.161 304.23 420.161 301.77 419 299z"/>
<path style="fill:#897631; stroke:none;" d="M362 301L361 305L368 304C366.047 302.276 364.537 301.655 362 301z"/>
<path style="fill:#634928; stroke:none;" d="M364.667 301.333C364.222 301.778 365.278 301.722 365.333 301.667C365.778 301.222 364.722 301.278 364.667 301.333z"/>
<path style="fill:#332b12; stroke:none;" d="M411 301L412 302L411 301z"/>
<path style="fill:#050308; stroke:none;" d="M497 302L498 303L497 302z"/>
<path style="fill:#8e4e48; stroke:none;" d="M361 306L364 306L363 304C361.365 304.545 361.545 304.365 361 306z"/>
<path style="fill:#9b773f; stroke:none;" d="M364 304C365.182 307.912 367.409 308.539 371 310C369.741 305.9 368.331 304.344 364 304z"/>
<path style="fill:#978136; stroke:none;" d="M439 304L439 314L442 304L439 304z"/>
<path style="fill:#050308; stroke:none;" d="M456 304C458.732 312.42 462.994 317.672 463 327C465.125 324.196 464.988 321.466 465 318C469.063 322.551 472.895 326.565 479 328C475.676 323.068 470.236 319.497 466.299 314.985C462.898 311.086 460.7 306.401 456 304z"/>
<path style="fill:#978136; stroke:none;" d="M459 304C461.089 310.299 465.641 316.143 471 320L469 314L473 317L472 312L476 312C470.651 307.43 465.887 305.34 459 304z"/>
<path style="fill:#332b12; stroke:none;" d="M463 304L464 305L463 304z"/>
<path style="fill:#050308; stroke:none;" d="M464 304C466.261 305.618 468.283 306.415 471 307C468.756 304.884 467.069 304.332 464 304z"/>
<path style="fill:#332b12; stroke:none;" d="M514 304L515 305L514 304z"/>
<path style="fill:#897631; stroke:none;" d="M438 305C436.589 309.785 436.502 315.016 441 318C439.888 313.798 439.646 308.914 438 305z"/>
<path style="fill:#ae8646; stroke:none;" d="M441 305C439.692 309.423 439.936 313.532 441 318C439.566 316.607 438.955 315.767 438 314C435.855 321.85 445.389 326.222 451 329C453.5 320.464 449.156 308.895 441 305z"/>
<path style="fill:#4d421b; stroke:none;" d="M466 305L467 306L466 305M512 305L513 306L512 305z"/>
<path style="fill:#332b12; stroke:none;" d="M495 306L496 307L495 306z"/>
<path style="fill:#050308; stroke:none;" d="M471 307L472 308L471 307z"/>
<path style="fill:#4d421b; stroke:none;" d="M497 307L498 308L497 307z"/>
<path style="fill:#897631; stroke:none;" d="M515 307L511 316L513 315C512.428 317.377 512.109 319.558 512 322C515.156 319.725 517.205 317.454 519 314C519.986 315.479 520 315.203 520 317C523.092 312.322 518.853 309.494 515 307z"/>
<path style="fill:#050308; stroke:none;" d="M472 308C472.545 309.635 472.365 309.455 474 310C473.455 308.365 473.635 308.545 472 308z"/>
<path style="fill:#4d421b; stroke:none;" d="M498 308L499 309L498 308z"/>
<path style="fill:#645822; stroke:none;" d="M514.333 308.667C514.278 308.722 514.222 309.778 514.667 309.333C514.722 309.278 514.778 308.222 514.333 308.667z"/>
<path style="fill:#4d421b; stroke:none;" d="M472 309L473 310L472 309z"/>
<path style="fill:#050308; stroke:none;" d="M536 341C530.251 348.269 525.159 356.912 523 366C527.791 363.233 530.571 356.258 534.286 352C540.007 345.44 547.068 341.115 553 335C553.545 336.635 553.365 336.455 555 337C557.55 330.739 560.887 327.045 567 324C563.41 329.043 560.094 334.862 559 341C561.018 340.122 562.232 339.349 564 338L562 342C566.671 339.572 567.484 335.185 570.248 331C572.769 327.185 576.069 324.166 578 320C575.695 320.667 574.035 321.703 572 323C574.21 319.015 577.006 315.657 577 311C568.489 317.509 560.877 328.287 550 331.425C546.813 332.345 543.232 331.255 540 331L540 333L545 333C542.334 335.185 540.039 337.224 538 340C534.473 336.031 531.646 332.318 536 328C531.815 318.638 541.822 314.417 549 311C544.144 308.289 539.614 312.242 536.468 316.015C530.947 322.639 526.625 335.662 536 341z"/>
<path style="fill:#4d421b; stroke:none;" d="M462 310L463 311L462 310z"/>
<path style="fill:#9b773f; stroke:none;" d="M480 310C477.968 315.587 483.231 321.285 479 326C488.756 329.774 483.047 313.416 480 310z"/>
<path style="fill:#8e4e48; stroke:none;" d="M481.333 310.667C481.278 310.722 481.222 311.778 481.667 311.333C481.722 311.278 481.778 310.222 481.333 310.667z"/>
<path style="fill:#b8a33f; stroke:none;" d="M472 312C472.701 316.04 473.419 319.711 477 322C477.251 318.12 478.709 314.887 478 311L472 312z"/>
<path style="fill:#4d421b; stroke:none;" d="M512 311L513 312L512 311M548 311L549 312L548 311z"/>
<path style="fill:#ae8646; stroke:none;" d="M545 325C544.893 320.603 546.137 316.352 550 314C544.775 311.396 539.265 314.584 536.149 319.173C532.92 323.928 535.477 327.44 540.956 326.52C542.357 326.285 543.715 325.544 545 325z"/>
<path style="fill:#8e4e48; stroke:none;" d="M546 312C547.813 313.265 548.883 314.102 550 316C550.683 314.494 550.826 313.685 551 312L546 312z"/>
<path style="fill:#ae8646; stroke:none;" d="M469 314C470.108 317.766 471.836 322.029 475.184 324.392C476.975 325.655 480.303 326.39 481.212 323.681C482.034 321.232 480.367 317.495 480 315C477.277 316.961 477.107 318.699 477 322C474.944 320.059 474.169 318.831 474 316C472.045 315.614 470.765 314.983 469 314M519 314C516.018 317.928 512.605 321.277 511 326C515.357 323.925 520.662 319.251 519 314z"/>
<path style="fill:#b8a33f; stroke:none;" d="M547 314L544 324C548.018 321.78 549.309 318.427 550 314L547 314z"/>
<path style="fill:#8e4e48; stroke:none;" d="M344 315C345.248 315.685 345.548 315.749 347 316C345.752 315.315 345.452 315.251 344 315z"/>
<path style="fill:#9b773f; stroke:none;" d="M512 315C510.563 318.02 510.2 319.754 511 323C512.172 320.387 512.668 317.787 512 315z"/>
<path style="fill:#ae8646; stroke:none;" d="M351 328C348.873 324.284 345.479 321.514 343 318L347 318L347 316C336.509 316.818 346.065 325.698 351 328z"/>
<path style="fill:#978136; stroke:none;" d="M347 316C349.695 321.275 355.674 324.051 360 328L358 328L360 332L351 328C354.564 331.888 358.717 334.426 364 335C363.539 325.105 354.938 320.403 347 316z"/>
<path style="fill:#4d421b; stroke:none;" d="M538 316L539 317L538 316z"/>
<path style="fill:#b8a33f; stroke:none;" d="M343 318C346.118 324.669 352.983 329.934 360 332C359.387 330.339 358.957 329.517 358 328L360 328C355.923 322.717 349.766 318.453 343 318z"/>
<path style="fill:#050308; stroke:none;" d="M351 318C354.262 321.162 357.87 324.109 362 326C359.484 321.168 356.539 318.418 351 318z"/>
<path style="fill:#4d421b; stroke:none;" d="M519 318L520 319L519 318z"/>
<path style="fill:#645822; stroke:none;" d="M536 318L537 319L536 318z"/>
<path style="fill:#4d421b; stroke:none;" d="M352 319L353 320L352 319z"/>
<path style="fill:#8e4e48; stroke:none;" d="M451.333 319.667C451.278 319.722 451.222 320.778 451.667 320.333C451.722 320.278 451.778 319.222 451.333 319.667z"/>
<path style="fill:#4d421b; stroke:none;" d="M535 319L536 320L535 319z"/>
<path style="fill:#050308; stroke:none;" d="M340 320L337 330L344 335C343.401 331.269 341.721 329.569 339 327C342.901 327.303 346.172 329.265 350 330C349.782 331.686 349.776 332.316 350 334L355 332C350.721 327.632 345.535 322.581 340 320z"/>
<path style="fill:#645822; stroke:none;" d="M534 321L535 322L534 321z"/>
<path style="fill:#4d421b; stroke:none;" d="M510 322L511 323L510 322z"/>
<path style="fill:#8e4e48; stroke:none;" d="M485 323L484 327C485.303 325.332 485.553 325.008 485 323z"/>
<path style="fill:#332b12; stroke:none;" d="M511 323L512 324L511 323M533.333 323.667C533.278 323.722 533.222 324.778 533.667 324.333C533.722 324.278 533.778 323.222 533.333 323.667M361 326L362 327L361 326z"/>
<path style="fill:#8e4e48; stroke:none;" d="M414 326L414 331L416 331L416 326L414 326z"/>
<path style="fill:#645822; stroke:none;" d="M535 326L536 327L535 326z"/>
<path style="fill:#897631; stroke:none;" d="M536 327C537.769 327.779 539.036 327.912 541 328C539.231 327.221 537.964 327.088 536 327z"/>
<path style="fill:#332b12; stroke:none;" d="M353 330L354 331L353 330z"/>
<path style="fill:#050308; stroke:none;" d="M390 330C392.606 334.882 397.398 337.984 400 343C394.322 342.161 389.509 339.248 384 338C387.105 342.906 403.431 349.681 401 339C402.635 339.545 402.455 339.365 403 341C405.12 340.854 408.67 341.435 410.393 339.961C413.742 337.096 408.651 330.791 405.025 334.201C404.33 334.856 404.233 336.238 404 337C399.573 334.583 394.804 331.329 390 330M364 331C364.648 333.53 365.427 334.885 367 337C362.957 336.782 359.765 335.337 356 334C358.089 340.098 364.833 340.137 370 338C368.75 334.616 366.995 332.979 364 331M447 342C443.52 340.32 440.249 339.735 439 344C445.157 342.995 446.559 346.679 448 352C445.151 352.021 442.729 352.19 440 353C442.594 354.101 445.551 354.018 447.985 355.603C452.46 358.516 454.785 363.747 459 367C457.12 359.138 451.997 351.704 450.437 344C449.921 341.452 450.786 338.563 451 336C456.909 337.801 459.258 343.552 463 348C463.006 343.265 456.71 330.37 450.313 334.836C448.088 336.39 447.658 339.575 447 342z"/>
<path style="fill:#7d2b4f; stroke:none;" d="M358 334C360.763 336.59 363.268 336.911 367 337C364.333 334.544 361.531 334.545 358 334z"/>
<path style="fill:#050308; stroke:none;" d="M422 338L418 337L417 349C422 351.945 426.131 353.935 432 354C431.693 348.389 429.327 344.525 425 341C426.349 339.232 427.122 338.018 428 336C425.355 336.077 423.734 335.997 422 338z"/>
<path style="fill:#7a6f29; stroke:none;" d="M519 338C515.794 340.932 511.529 342.515 508.414 345.598C504.901 349.076 503.232 354.347 502 359C507.768 357.259 512.513 351.476 516.571 347.169C519.539 344.019 522.379 341.682 519 338z"/>
<path style="fill:#050308; stroke:none;" d="M319 339C321.369 343.323 329.394 344.491 331 339L319 339z"/>
<path style="fill:#332b12; stroke:none;" d="M515 340L516 341L515 340z"/>
<path style="fill:#8e4e48; stroke:none;" d="M451 341L451 344C452.015 342.861 452.309 342.388 453 341L451 341z"/>
<path style="fill:#332b12; stroke:none;" d="M527 341L528 342L527 341z"/>
<path style="fill:#978136; stroke:none;" d="M528 341C525.724 345.971 524.02 349.425 524 355C528.911 353.563 528.631 345.454 530 341L528 341z"/>
<path style="fill:#7a6f29; stroke:none;" d="M419 342C420.413 344.475 421.525 345.587 424 347C422.676 344.313 421.687 343.324 419 342z"/>
<path style="fill:#978136; stroke:none;" d="M452 342C452.712 346.691 455.875 350.33 457 355C459.979 354.404 458.733 353.433 461 354L463 349C461.203 349 461.479 349.014 460 350C458.485 345.603 456.049 343.988 452 342z"/>
<path style="fill:#4d421b; stroke:none;" d="M526 342L525 344C526.263 343.029 526.392 343.306 526 342z"/>
<path style="fill:#050308; stroke:none;" d="M609 362C611.322 356.31 613.771 351.163 612 345L610 345C608.322 352.029 608.08 356.253 602 361C600.333 353.305 605.218 348.704 608 342C602.121 343.69 593.862 355.608 599.742 361.381C602.012 363.61 606.177 361.943 609 362M317 343C317.739 345.567 318.682 347.673 320 350C321.602 347.415 320.976 345.867 320 343L317 343z"/>
<path style="fill:#7a6f29; stroke:none;" d="M526 343C520.351 347.304 514.035 352.492 511 359L516 356C517.352 363.113 525.164 357.135 520 356C522.095 352.71 526.922 346.838 526 343z"/>
<path style="fill:#8e4e48; stroke:none;" d="M528 344L528 349C528.83 346.97 528.83 346.03 528 344z"/>
<path style="fill:#050308; stroke:none;" d="M549 354C554.669 359.123 562.972 359.15 568 365C565.404 364.182 562.718 362.421 560 362.178C557.169 361.926 554.837 363.299 552 362.208C547.849 360.61 543.195 354.086 538.248 356.491C534.314 358.403 537.465 361.814 540.023 363.03C545.442 365.606 553.079 365.5 559 366C548.951 372.246 534.896 377.118 523 375C525.318 378.576 529.007 378.042 533 377.996C538.431 377.934 544.876 377 549.911 374.856C553.223 373.446 555.469 370.979 559 370L553 380C556.719 378.183 558.532 373.851 562.184 372.317C563.726 371.67 565.413 371.972 567.001 372.219C571.684 372.947 586.166 374.84 581.398 365.321C580.895 364.316 579.781 363.692 579 363C581.685 359.055 583.182 355.733 582 351C578.943 352.185 577.096 353.482 575 356C577.172 355.536 578.958 354.895 581 354L578 361C576.009 360.524 574.007 360.315 572.014 359.892C567.978 359.035 564.799 355.039 568.278 351.418C571.906 347.642 578.196 349.12 581 345C571.843 345.025 568.096 349.226 560.17 352.531C556.905 353.892 552.493 353.852 549 354M325 349C331.132 349.501 336.369 351.691 342 354C339.317 348.513 329.624 342.462 325 349z"/>
<path style="fill:#4d421b; stroke:none;" d="M424 346C424.031 347.832 423.92 347.559 425 349C424.749 347.548 424.685 347.248 424 346z"/>
<path style="fill:#7a6f29; stroke:none;" d="M453 347C453.648 349.394 454.032 350.536 456 352C455.474 349.457 455.122 348.465 453 347z"/>
<path style="fill:#978136; stroke:none;" d="M321 349L321 351C328.322 353.386 335.189 356.795 343 355C337.2 350.212 328.408 348.177 321 349z"/>
<path style="fill:#7d2b4f; stroke:none;" d="M453.333 349.667C453.278 349.722 453.222 350.778 453.667 350.333C453.722 350.278 453.778 349.222 453.333 349.667z"/>
<path style="fill:#897631; stroke:none;" d="M523 349L520 356C522.133 357.155 522.782 357.882 524 360C524.924 358.352 525.449 356.825 526 355C524.53 353.118 524.005 351.15 523 349z"/>
<path style="fill:#b8a33f; stroke:none;" d="M461 351C461.217 355.236 462.169 361.739 467.055 363.128C470.113 363.998 476.085 361.235 473.914 357.376C471.959 353.902 464.499 352.554 461 351z"/>
<path style="fill:#050308; stroke:none;" d="M324 352C327.58 356.495 335.506 357.76 341 358C336.942 354.842 329.054 353.382 324 352z"/>
<path style="fill:#4d421b; stroke:none;" d="M454 352L455 353L454 352z"/>
<path style="fill:#9b773f; stroke:none;" d="M455 352C455.817 357.556 457.633 362.916 460 368C462.241 364.715 461.888 361.774 461 358C460.315 359.248 460.251 359.548 460 361C458.312 357.989 457.351 355.438 457 352L455 352z"/>
<path style="fill:#4d421b; stroke:none;" d="M328 353L329 354L328 353z"/>
<path style="fill:#897631; stroke:none;" d="M459 353C458.455 354.635 458.635 354.455 457 355L459 361C459.685 359.752 459.749 359.452 460 358C461.023 359.534 460.805 359.402 462 360C462.009 356.785 461.269 355.284 459 353z"/>
<path style="fill:#8e4e48; stroke:none;" d="M466.667 353.333C466.222 353.778 467.278 353.722 467.333 353.667C467.778 353.222 466.722 353.278 466.667 353.333z"/>
<path style="fill:#978136; stroke:none;" d="M542 353C542.936 354.949 543.392 355.55 545 357L545 353L542 353z"/>
<path style="fill:#7a6f29; stroke:none;" d="M545 353L544 354L544 358C547.966 360.437 551.438 362.847 556 364C557.538 357.093 550.523 354.911 545 353z"/>
<path style="fill:#050308; stroke:none;" d="M379 359C383.586 357.455 385.817 357.411 390 360C386.524 362.018 384.825 365.23 382 368C384.739 370.082 387.964 371.489 391 373.142C392.954 374.206 394.922 375.267 397 376.073C400.984 377.617 410.02 378.03 406.777 371.014C405.41 368.057 402.456 366.462 399.999 364.549C394.843 360.532 383.176 347.642 379 359z"/>
<path style="fill:#4d421b; stroke:none;" d="M503.333 354.667C503.278 354.722 503.222 355.778 503.667 355.333C503.722 355.278 503.778 354.222 503.333 354.667M508 354L509 355L508 354z"/>
<path style="fill:#050308; stroke:none;" d="M102 355C99.0782 370.738 102 388.003 102 404C104.921 399.725 104 394.006 104 389C104 377.484 102.546 366.507 104 355L102 355z"/>
<path style="fill:#645822; stroke:none;" d="M333 355C334.248 355.685 334.548 355.749 336 356C334.752 355.315 334.452 355.251 333 355z"/>
<path style="fill:#4d421b; stroke:none;" d="M341.667 355.333C341.222 355.778 342.278 355.722 342.333 355.667C342.778 355.222 341.722 355.278 341.667 355.333z"/>
<path style="fill:#332b12; stroke:none;" d="M455 355L456 356L455 355z"/>
<path style="fill:#7d2b4f; stroke:none;" d="M526 355L525 359C526.146 357.359 526.393 356.924 526 355z"/>
<path style="fill:#332b12; stroke:none;" d="M542 355L543 356L542 355z"/>
<path style="fill:#645822; stroke:none;" d="M338 356L339 357L338 356z"/>
<path style="fill:#332b12; stroke:none;" d="M340.667 356.333C340.222 356.778 341.278 356.722 341.333 356.667C341.778 356.222 340.722 356.278 340.667 356.333z"/>
<path style="fill:#645822; stroke:none;" d="M514 356C514.849 357.991 515.267 358.778 517 360C516.151 358.009 515.733 357.222 514 356z"/>
<path style="fill:#4d421b; stroke:none;" d="M543 356L544 357L543 356z"/>
<path style="fill:#8e4e48; stroke:none;" d="M455 358C455.545 359.635 455.365 359.455 457 360L457 358L455 358z"/>
<path style="fill:#897631; stroke:none;" d="M475 358L474 362C476.86 361.25 478.518 361.04 479 358L475 358z"/>
<path style="fill:#050308; stroke:none;" d="M462 359C462 361.872 461.306 365.932 462.603 368.581C464.483 372.418 473.144 374.315 477 375C476.903 371.73 476.687 368.009 474.08 365.618C472.085 363.788 469.469 364.844 467.185 363.808C465.092 362.858 463.579 360.6 462 359M482 396C485.348 388.239 482.867 370.124 495 372C494.373 368.925 493.719 367.573 491 366C494.526 361.362 496.721 362.871 500 367C501.61 360.869 493.927 357.266 489.853 362.229C482.645 371.01 481.993 385.347 482 396z"/>
<path style="fill:#332b12; stroke:none;" d="M502.667 359.333C502.222 359.778 503.278 359.722 503.333 359.667C503.778 359.222 502.722 359.278 502.667 359.333z"/>
<path style="fill:#4d421b; stroke:none;" d="M557 359L557 363C558.267 361.457 558.489 360.952 559 359L557 359z"/>
<path style="fill:#7a6f29; stroke:none;" d="M559 359C561.048 362.731 563.872 364.201 568 365C565.947 361.393 562.836 360.31 559 359z"/>
<path style="fill:#050308; stroke:none;" d="M193 362C187.121 373.015 192.249 391.269 197 402C199.27 395.602 193.83 385.82 193.17 379C192.645 373.576 194.557 367.062 193 362M417 362C421.225 367.078 428.759 368.522 435 370C431.222 371.995 427.399 372.68 426 377C429.158 375.713 433.28 373.201 436.775 374.619C442.348 376.879 443.905 387.004 452 382C447.755 379.389 443.99 377.05 441 373C446.826 374.702 450.994 377.703 456 381C452.735 372.597 447.375 372.834 440 370.183C432.182 367.373 425.296 363.717 417 362z"/>
<path style="fill:#7a6f29; stroke:none;" d="M470 363C471.659 363.406 472.242 363.309 474 363C472.191 362.426 471.931 362.535 470 363z"/>
<path style="fill:#050308; stroke:none;" d="M534 362C533.198 365.368 533.01 368.545 533 372C535.357 370.896 536.376 370.044 538 368C534.596 368 535.926 364.724 536 362L534 362M355 367C359.455 366.17 364.457 364.879 369 365.224C373.427 365.56 377.482 366.962 382 367C375.891 362.43 360.246 360.101 355 367z"/>
<path style="fill:#634928; stroke:none;" d="M417 363C417.545 364.635 417.365 364.455 419 365L419 363L417 363z"/>
<path style="fill:#7a6f29; stroke:none;" d="M465 363C466.788 364.422 467.706 364.697 470 365C468.307 363.938 466.96 363.48 465 363z"/>
<path style="fill:#4d421b; stroke:none;" d="M472 363L473 364L472 363z"/>
<path style="fill:#050308; stroke:none;" d="M417 364L418 365L417 364z"/>
<path style="fill:#4d421b; stroke:none;" d="M458 364L459 365L458 364z"/>
<path style="fill:#332b12; stroke:none;" d="M550.667 364.333C550.222 364.778 551.278 364.722 551.333 364.667C551.778 364.222 550.722 364.278 550.667 364.333z"/>
<path style="fill:#9b773f; stroke:none;" d="M479 365L479 372C480.059 369.466 480.059 367.534 479 365z"/>
<path style="fill:#645822; stroke:none;" d="M544 365C547.406 367.199 552.882 366.482 557 367C553.165 364.38 548.505 365 544 365z"/>
<path style="fill:#291939; stroke:none;" d="M382.333 366.667C382.278 366.722 382.222 367.778 382.667 367.333C382.722 367.278 382.778 366.222 382.333 366.667z"/>
<path style="fill:#332b12; stroke:none;" d="M461 366L461 370C461.71 368.24 461.71 367.76 461 366z"/>
<path style="fill:#8e4e48; stroke:none;" d="M480 366L480 370C480.71 368.24 480.71 367.76 480 366z"/>
<path style="fill:#978136; stroke:none;" d="M534 374L538 374C539.066 370.435 542.625 368.797 545 366C539.898 366.987 536.483 369.433 534 374z"/>
<path style="fill:#7a6f29; stroke:none;" d="M537 373C544.203 374.8 552.481 369.904 559 367C551.052 364.606 542.424 366.63 537 373z"/>
<path style="fill:#050308; stroke:none;" d="M320 372C317.799 371.519 317.201 371.519 315 372C316.195 375.055 317.534 377.733 318 381C319.314 380.232 319.232 380.314 320 379C326.499 382.202 341.93 387.266 347 380C351.086 381.174 354.109 380.641 358 379C358.933 382.192 360.098 383.386 363 385C353.04 388.372 337.479 384.238 337 399C340.969 399 345.094 398.691 349 399.518C353.594 400.49 358.168 402.919 362.981 401.566C366.408 400.602 369.056 396.786 365.563 394.049C363.613 392.52 361.281 392.811 359 393C365.266 389.214 370.287 392.095 377 393C375.644 389.102 372.414 388.702 369 386.815C365.657 384.966 362.806 382.561 360 380C370.45 380.216 377.337 381.573 381 392C382.658 388.003 381.667 384.314 378 382L385 380L385 378C382.582 377.278 380.528 377.052 378 377C380.382 374.172 381.538 372.675 381 369C378.013 370.151 375.118 371.261 372 372L373 375C365.043 377.236 356.264 377.932 348 378L351 376C348.54 374.33 345.776 374.292 343 373.165C336.078 370.354 324.95 362.295 320 372M345 367C347.835 371.415 352.966 373.243 358 374C355.264 369.823 349.788 367.854 345 367z"/>
<path style="fill:#4d421b; stroke:none;" d="M378 367C379.377 367.911 380.44 368.404 382 369C380.686 367.382 380.123 367.307 378 367z"/>
<path style="fill:#332b12; stroke:none;" d="M459 367L460 368L459 367z"/>
<path style="fill:#8e4e48; stroke:none;" d="M478 367C478.032 369.875 477.792 372.074 480 374C479.519 371.535 479.089 369.252 478 367z"/>
<path style="fill:#332b12; stroke:none;" d="M539 367L540 368L539 367z"/>
<path style="fill:#050308; stroke:none;" d="M369 369C370.943 369.622 371.949 369.436 374 369C372.057 368.378 371.051 368.564 369 369z"/>
<path style="fill:#332b12; stroke:none;" d="M374 368L375 369L374 368z"/>
<path style="fill:#897631; stroke:none;" d="M365 371C367.233 372.009 369.604 372.405 372 373C366.555 376.14 361.132 376 355 376C359.48 377.88 372.116 378.645 372 372C375.236 371.443 378.024 370.385 381 369C375.834 366.894 370.249 370.225 365 371z"/>
<path style="fill:#9b773f; stroke:none;" d="M456 368C460.039 371.919 466.42 374.428 472 375C468.134 370.813 461.469 369.295 456 368z"/>
<path style="fill:#332b12; stroke:none;" d="M538 368L539 369L538 368z"/>
<path style="fill:#050308; stroke:none;" d="M360 372C362.749 372.58 365.251 371.624 368 371C364.96 369.823 362.887 370.613 360 372z"/>
<path style="fill:#332b12; stroke:none;" d="M368 370L369 371L368 370z"/>
<path style="fill:#4d421b; stroke:none;" d="M377 370L378 371L377 370M463 370L464 371L463 370z"/>
<path style="fill:#291939; stroke:none;" d="M254 371C243.779 390.425 243.513 410.513 242.985 432C242.669 444.895 241.692 458.023 243.286 471C246.064 493.614 256.507 516.595 269.572 535C272.562 539.213 274.761 544.101 278.304 547.896C283.926 553.918 292.385 557.194 299 562L303 560C305.836 567.169 312.723 571.535 317.73 577.169C319.751 579.442 321.006 582.218 323.224 584.335C335.38 595.939 350.904 604.53 364 615.094C370.111 620.024 376.285 622.192 382.901 625.944C385.529 627.435 386.777 629.15 386 632C396.224 636.462 405.202 643.803 416 646.957C421.253 648.491 426.637 647.653 432 648.286C443.762 649.673 456.135 651.724 468 650.911C473.79 650.514 479.304 648.837 485 648C480.653 645.379 474.861 644.581 470 643L470 641C475.959 639.598 481.924 641.026 488 640.999C494.863 640.969 501.191 639.379 508 641C501.455 643.451 493.959 643.981 487 644C496.281 648.13 509.905 642.908 519 640C507.405 634.998 492.95 636.023 481 631.536C466.229 625.991 453.204 617.442 439 610.782C426.686 605.008 414.089 600.079 402 593.738C383.219 583.888 365.406 571.7 349 558.389C336.874 548.551 323.869 540.857 314.351 528C300.702 509.565 291.571 488.399 281.398 468C274.192 453.55 265.462 439.705 261.152 424C257.902 412.157 256.326 401.153 255.17 389C254.619 383.209 256.269 376.407 254 371z"/>
<path style="fill:#978136; stroke:none;" d="M488 384C491.534 380.318 494.684 377.029 496 372C494.749 371.771 493.289 371.347 491.999 371.345C484.343 371.33 487.414 379.374 488 384z"/>
<path style="fill:#645822; stroke:none;" d="M362 372L363 373L362 372z"/>
<path style="fill:#978136; stroke:none;" d="M355 375C360.222 377.191 366.845 375.93 372 374C367.092 370.283 360.19 372.767 355 375z"/>
<path style="fill:#897631; stroke:none;" d="M533 372L534 376L537 375C535.33 373.33 534.424 374.303 535 372L533 372z"/>
<path style="fill:#634928; stroke:none;" d="M321 373C321.545 374.635 321.365 374.455 323 375L323 373L321 373z"/>
<path style="fill:#7a6f29; stroke:none;" d="M323 373C325.54 377.462 330.157 378.345 335 379C333.684 376.642 331.841 374.995 330 373C327.498 373.402 325.511 373.359 323 373z"/>
<path style="fill:#978136; stroke:none;" d="M331 373C333.052 378.959 339.377 379.883 345 380C343.885 373.561 336.447 373.692 331 373z"/>
<path style="fill:#897631; stroke:none;" d="M441 373C442.324 375.687 443.313 376.676 446 378L445 375C446.745 375.89 448.125 376.453 450 377C447.337 374.472 444.564 373.748 441 373z"/>
<path style="fill:#050308; stroke:none;" d="M465 373L466 374L465 373z"/>
<path style="fill:#4d421b; stroke:none;" d="M471 373L472 374L471 373z"/>
<path style="fill:#050308; stroke:none;" d="M466 374C467.667 376.08 469.391 376.423 472 377C470.051 375.427 468.412 374.709 466 374z"/>
<path style="fill:#7a6f29; stroke:none;" d="M470 375C472.827 377.135 475.467 378.078 479 378C476.194 375.21 473.919 374.47 470 375z"/>
<path style="fill:#897631; stroke:none;" d="M495 374C492.97 378.346 489.424 381.306 488 386C492.325 382.4 496.215 378.942 499 374L495 374z"/>
<path style="fill:#9b773f; stroke:none;" d="M445 375C447.117 380.904 452.642 382.606 458 385C455.277 379.181 450.759 377.167 445 375z"/>
<path style="fill:#645822; stroke:none;" d="M345.333 377.667C345.278 377.722 345.222 378.778 345.667 378.333C345.722 378.278 345.778 377.222 345.333 377.667z"/>
<path style="fill:#332b12; stroke:none;" d="M346.333 377.667C346.278 377.722 346.222 378.778 346.667 378.333C346.722 378.278 346.778 377.222 346.333 377.667z"/>
<path style="fill:#7d2b4f; stroke:none;" d="M320 379L320 381L322 381C321.455 379.365 321.635 379.545 320 379z"/>
<path style="fill:#ae8646; stroke:none;" d="M486 379C484.171 385.508 482.866 392.296 482 399C487.875 395.669 492.291 387.363 494 381C491.403 382.33 490.409 383.436 489 386C488.278 383.582 488.052 381.528 488 379L486 379z"/>
<path style="fill:#897631; stroke:none;" d="M319 384C321.042 383.105 322.828 382.464 325 382C322.159 380.122 319.978 380.672 319 384z"/>
<path style="fill:#332b12; stroke:none;" d="M323 380L324 381L323 380z"/>
<path style="fill:#050308; stroke:none;" d="M459 380C459.25 385.624 464.151 388.797 467.485 393C472.82 399.724 480.862 410.442 482 419C487.363 421.522 490.79 426.553 494.579 431C502.362 440.135 511.271 453.419 522 459L519 463C518.594 460.908 518.783 460.98 517 460C517.685 464.918 519.505 467.528 523 471C529.678 467.722 532.469 469.985 534 477L530 476C533.222 479.418 536.331 480.691 541 480C539.066 469.97 531.437 465.134 524.286 458.96C519.037 454.429 514.774 448.988 510 444C516.062 445.972 526.419 450.501 529 442C523.615 439.758 518.622 436.619 513 435C513.07 430.422 510.154 429.088 506 428L505 429C507.268 433.642 511.237 436.194 516 438C515.014 439.479 515 439.203 515 441L512 438L510 438L510 440C506.727 438.212 505.025 436.114 503 433C496.582 432.302 483.188 418.796 487.837 412.13C494.379 402.75 503.671 401.159 514 399C511.059 400.761 508.7 401.999 507 405L517 401C514.731 403.672 513.522 405.533 513 409C519.663 409 526.479 409.129 531.853 404.443C536.006 400.821 537.753 392.516 545.075 393.147C547.978 393.398 550.488 396.669 553 398C554.277 396.085 554.277 396.915 553 395C555.042 395.895 556.828 396.536 559 397C553.782 391.352 544.583 387.803 537 390.858C533.355 392.326 530.582 395.36 527 397C529.236 394.186 530.353 392.581 530 389C526.243 391.837 523.383 395.056 519 397C519.854 394.303 519.851 393.614 517 393L523 390C519.752 388.734 517.141 389.675 514 391L508 384C507.01 386.523 507.383 388.358 508 391C498.423 395.531 487.37 402.445 484 413C474.989 402.427 469.681 389.247 459 380z"/>
<path style="fill:#4d421b; stroke:none;" d="M485 380L486 381L485 380z"/>
<path style="fill:#050308; stroke:none;" d="M576 386C584.799 382.378 591.619 379.72 597 390L589 390C596.347 393.199 602.023 394.993 607 402L597 406L599 403L590 401C592.066 404.011 594.48 407.758 598.089 409.067C601.62 410.348 605.455 408.677 609 408.304C612.351 407.951 615.668 408.737 619 409C616.894 405.903 614.666 405.335 611 405C610.257 397.799 606.022 395.959 601.314 391.251C598.79 388.727 598.514 384.957 595.772 382.573C589.949 377.511 579.305 379.301 576 386M494.333 381.667C494.278 381.722 494.222 382.778 494.667 382.333C494.722 382.278 494.778 381.222 494.333 381.667z"/>
<path style="fill:#8e4e48; stroke:none;" d="M318 382C317.598 383.944 317.598 384.056 318 386C318.71 384.24 318.71 383.759 318 382z"/>
<path style="fill:#ae8646; stroke:none;" d="M319 386C323.178 386.869 325.257 386.448 326 382C322.435 382.269 320.744 382.832 319 386z"/>
<path style="fill:#050308; stroke:none;" d="M493 383C490.578 388.614 485.711 393.239 484 399C490.871 397.601 495.777 389.811 493 383z"/>
<path style="fill:#9b773f; stroke:none;" d="M320 386C321.54 387.803 322.597 387.832 325 388C323.352 387.076 321.825 386.551 320 386z"/>
<path style="fill:#050308; stroke:none;" d="M404 389C410.768 387.389 422.494 388.805 427.322 394.638C430.729 398.756 428.469 402.423 435.005 404.096C438.09 404.885 442.006 405.311 444.677 403.142C449.436 399.279 443.729 395.582 440 395C440.27 397.687 440.818 399.57 442 402L431 401C431.41 398.83 432.333 396.258 431.5 394.083C429.796 389.633 419.299 386.631 415 386.083C411.224 385.603 404.928 384.669 404 389z"/>
<path style="fill:#645822; stroke:none;" d="M483.333 389.667C483.278 389.722 483.222 390.778 483.667 390.333C483.722 390.278 483.778 389.222 483.333 389.667z"/>
<path style="fill:#9b773f; stroke:none;" d="M575 390C577.501 392.178 579.708 392.703 583 393C585.145 400.572 591.949 401.941 599 402C599.683 400.42 599.805 400.223 601 399C599.297 395.83 597.455 394.91 594 394L595 391L575 390z"/>
<path style="fill:#291939; stroke:none;" d="M587.667 390.333C587.222 390.778 588.278 390.722 588.333 390.667C588.778 390.222 587.722 390.278 587.667 390.333z"/>
<path style="fill:#050308; stroke:none;" d="M571 396L576 397C574.674 402.709 579.076 403.744 584 404L577 406C581.019 409.046 588.009 408.897 593 409C589.583 404.067 584.386 398.895 583 393C578.183 392.306 572.983 390.235 571 396z"/>
<path style="fill:#332b12; stroke:none;" d="M595 391L596 392L595 391z"/>
<path style="fill:#7a6f29; stroke:none;" d="M346 396C349.431 397.381 352.341 397.125 356 397L356 392C351.565 392.052 348.909 392.508 346 396M542 395C544.502 394.598 546.489 394.642 549 395C546.401 392.376 544.186 391.677 542 395z"/>
<path style="fill:#978136; stroke:none;" d="M594 392C595.713 394.551 599.341 395.808 599 399C600.943 399.622 601.949 399.436 604 399C601.276 395.227 598.613 392.931 594 392z"/>
<path style="fill:#634928; stroke:none;" d="M356 393L355 394L356 396L358 395C357.455 393.365 357.635 393.545 356 393z"/>
<path style="fill:#ae8646; stroke:none;" d="M552 402C551.769 400.294 551.681 398.738 550.682 397.254C547.006 391.792 538.849 396.329 545.147 400.427C545.973 400.965 547.03 401.194 547.96 401.467C549.284 401.855 550.639 401.88 552 402z"/>
<path style="fill:#4d421b; stroke:none;" d="M582.333 394.667C582.278 394.722 582.222 395.778 582.667 395.333C582.722 395.278 582.778 394.222 582.333 394.667z"/>
<path style="fill:#9b773f; stroke:none;" d="M541 395L541 399C541.71 397.24 541.71 396.759 541 395z"/>
<path style="fill:#4d421b; stroke:none;" d="M601 395L602 396L601 395z"/>
<path style="fill:#332b12; stroke:none;" d="M583 396L584 397L583 396M602 396L603 397L602 396M350.667 397.333C350.222 397.778 351.278 397.722 351.333 397.667C351.778 397.222 350.722 397.278 350.667 397.333z"/>
<path style="fill:#050308; stroke:none;" d="M394 397L394 399C400.584 399.018 405.793 399.461 410 405C403.557 407.33 396.588 406.494 393 400C388.987 400.428 385.028 400.031 381 400L381 402C389.775 402.384 397.277 410.267 405.995 408.768C411.096 407.891 413.732 402.383 408.852 399.09C404.671 396.269 398.775 397 394 397z"/>
<path style="fill:#645822; stroke:none;" d="M603 397L604 398L603 397z"/>
<path style="fill:#050308; stroke:none;" d="M553 403C557.625 402.138 562.311 401.37 567 401C565.387 402.446 563.863 403.919 561.975 405.015C553.539 409.916 549.277 402.112 542 400L542 406C543.635 405.455 543.455 405.635 544 404C549.362 408.324 556.261 410.642 562.995 407.772C565.412 406.742 568.218 404.878 568.534 402.019C569.343 394.701 555.297 400.646 553 403z"/>
<path style="fill:#7a6f29; stroke:none;" d="M599 400L599 404C602.05 403.846 604.25 403.329 607 402C604.922 398.457 602.723 399.132 599 400z"/>
<path style="fill:#4d421b; stroke:none;" d="M542 399L543 400L542 399z"/>
<path style="fill:#7a6f29; stroke:none;" d="M500 400L501 401L500 400z"/>
<path style="fill:#332b12; stroke:none;" d="M499 401L499 404C500.767 403.045 501.607 402.434 503 401C501.316 400.776 500.687 400.782 499 401z"/>
<path style="fill:#7a6f29; stroke:none;" d="M587 400C587.651 402.434 588.16 403.283 590 405C589.899 402.096 589.524 401.435 587 400z"/>
<path style="fill:#050308; stroke:none;" d="M326 405C331.874 403.027 336.173 406.404 342 407C335.904 408.802 328.045 405.198 323 409C330.789 410.53 340.318 411.271 348 409L348 407C342.467 405.242 328.498 397.48 326 405z"/>
<path style="fill:#4d421b; stroke:none;" d="M599 401L597 402C598.482 402.791 599.796 402.87 599 401z"/>
<path style="fill:#8e4e48; stroke:none;" d="M615 404L619 402C616.588 400.645 615.568 401.351 615 404z"/>
<path style="fill:#897631; stroke:none;" d="M491 409C496.725 410.625 502.19 408.286 505 403L504 402C502.125 402.547 500.745 403.11 499 404L500 402C495.932 403.383 493.502 405.533 491 409z"/>
<path style="fill:#9b773f; stroke:none;" d="M616 402C618.548 409.892 630.822 407.759 631 417C633.477 414.745 632.478 411.683 630.486 409.104C627.052 404.66 621.437 402.294 616 402z"/>
<path style="fill:#ae8646; stroke:none;" d="M590 403C591.456 408.186 595.176 411.75 600 414L592 403L590 403z"/>
<path style="fill:#332b12; stroke:none;" d="M597.333 404.667C597.278 404.722 597.222 405.778 597.667 405.333C597.722 405.278 597.778 404.222 597.333 404.667z"/>
<path style="fill:#645822; stroke:none;" d="M598 404C599.248 404.685 599.548 404.749 601 405C599.752 404.315 599.452 404.251 598 404z"/>
<path style="fill:#9b773f; stroke:none;" d="M490 409L490 413C496.516 412.941 502.825 411.127 506 405C500.13 407.017 496.444 410.121 490 409z"/>
<path style="fill:#634928; stroke:none;" d="M593 405L594 406L593 405M618.333 406.667C618.278 406.722 618.222 407.778 618.667 407.333C618.722 407.278 618.778 406.222 618.333 406.667z"/>
<path style="fill:#ae8646; stroke:none;" d="M619 407C620.971 411.965 625.613 413.541 628 418C636.931 412.628 623.047 408.496 619 407z"/>
<path style="fill:#050308; stroke:none;" d="M398 417C392.003 420.064 387.683 421.236 381 420L381 418C387.066 415.664 391.556 414.805 398 416C392.131 406.313 384.325 408.25 375 411.59C372.285 412.563 366.281 414.048 366.346 417.83C366.406 421.38 372.466 422.152 375 422.56C382.25 423.728 394.89 425.204 398 417z"/>
<path style="fill:#332b12; stroke:none;" d="M619 409L620 410L619 409z"/>
<path style="fill:#645822; stroke:none;" d="M632.333 411.667C632.278 411.722 632.222 412.778 632.667 412.333C632.722 412.278 632.778 411.222 632.333 411.667z"/>
<path style="fill:#050308; stroke:none;" d="M633 412C633.47 420.025 631.009 423.194 625 428C633.355 428.289 638.606 418.454 633 412z"/>
<path style="fill:#332b12; stroke:none;" d="M633.333 414.667C633.278 414.722 633.222 415.778 633.667 415.333C633.722 415.278 633.778 414.222 633.333 414.667z"/>
<path style="fill:#897631; stroke:none;" d="M381 418L381 420C385.394 420.687 388.95 419.742 393 418L393 415C388.528 415.095 384.97 415.919 381 418z"/>
<path style="fill:#978136; stroke:none;" d="M392 416L393 418C390.327 418.851 387.775 419.59 385 420C389.703 421.917 393.971 419.531 398 417C395.731 415.493 394.674 415.458 392 416z"/>
<path style="fill:#8e4e48; stroke:none;" d="M626 416L626 418L628 418L628 416L626 416z"/>
<path style="fill:#4d421b; stroke:none;" d="M395 418L396 419L395 418z"/>
<path style="fill:#050308; stroke:none;" d="M557 419C559.366 423.606 561.663 427.756 562 433L564 433C563.835 427.415 562.142 421.757 557 419M578 420C572.354 428.107 586.304 434.461 593 434C591.638 430.92 591.304 428.318 591 425C597.744 427.911 603.211 431.093 601 439C612.464 440.505 608.867 430.919 601.999 426.559C594.554 421.833 589.065 422.991 581 425C580.187 423.085 579.314 421.612 578 420M318 429C321.739 429.989 325.108 430.909 329 431C332.165 425.526 338.89 425.044 340 432C344.497 431.904 348.59 430.648 353 430C351.322 419.943 336.661 424.542 330 425.12C325.224 425.534 319.857 423.406 318 429z"/>
<path style="fill:#978136; stroke:none;" d="M407 426L408 429L402 432C406.875 433.543 410.271 429.516 411 425L407 426z"/>
<path style="fill:#4d421b; stroke:none;" d="M591.667 425.333C591.222 425.778 592.278 425.722 592.333 425.667C592.778 425.222 591.722 425.278 591.667 425.333z"/>
<path style="fill:#634928; stroke:none;" d="M334 426C335.648 426.924 337.175 427.449 339 428C337.46 426.197 336.403 426.168 334 426z"/>
<path style="fill:#050308; stroke:none;" d="M402 435C400.938 433.4 401.116 433.719 399 434C402.203 436.376 406.108 436 410 436L430 436C433.654 436 438.096 437.221 439 433L431 434C435.037 432.109 438.817 431.068 441 427C434.487 425.21 427.425 428.199 421 429.601C417.608 430.341 414.319 429.051 411 429.681C407.588 430.327 404.67 432.95 402 435z"/>
<path style="fill:#ae8646; stroke:none;" d="M535 434L535 432C533.392 433.45 532.936 434.051 532 436C543.507 439.29 554.159 444.702 566 447C561.641 441.23 554.802 437.931 548 436C551.746 433.766 553.832 432.419 552 428L558 429L555 434L562 434C561.02 432.217 561.092 432.406 559 432C558.081 420.48 540.139 429.855 535 434z"/>
<path style="fill:#897631; stroke:none;" d="M600 440C600.805 438.199 602.482 435.97 602.383 433.924C602.208 430.278 595.99 425.291 592.362 427.216C590.173 428.378 591.063 431.193 591.712 432.997C593.237 437.236 595.715 439.132 600 440z"/>
<path style="fill:#4d421b; stroke:none;" d="M594 426L595 427L594 426z"/>
<path style="fill:#7a6f29; stroke:none;" d="M329 428C329.959 431.06 330.797 431.862 334 432L332 429L340 431L340 427C336.232 427.243 332.711 427.118 329 428z"/>
<path style="fill:#ae8646; stroke:none;" d="M395 432C400.481 432.174 405.041 432.244 408 427C403.198 427.113 397.98 427.936 395 432z"/>
<path style="fill:#b8a33f; stroke:none;" d="M552 428C552.768 429.314 552.686 429.232 554 430C552.301 432.577 550.35 434.064 548 436C555.218 438.769 561.467 442.486 567 448C569.166 444.292 565.741 436.476 561.703 434.603C559.728 433.686 557.113 434.007 555 434L558 429L552 428z"/>
<path style="fill:#978136; stroke:none;" d="M332 429C333.281 431.471 334.32 432.256 337 433L337 429L332 429z"/>
<path style="fill:#4d421b; stroke:none;" d="M408 430L409 431L408 430M337 431C338.248 431.685 338.548 431.749 340 432C338.752 431.315 338.452 431.251 337 431z"/>
<path style="fill:#8e4e48; stroke:none;" d="M559.667 431.333C559.222 431.778 560.278 431.722 560.333 431.667C560.778 431.222 559.722 431.278 559.667 431.333z"/>
<path style="fill:#9b773f; stroke:none;" d="M397 432C398.506 432.683 399.315 432.826 401 433C399.494 432.317 398.685 432.174 397 432z"/>
<path style="fill:#332b12; stroke:none;" d="M398 433C399.248 433.685 399.548 433.749 401 434C399.752 433.315 399.452 433.251 398 433z"/>
<path style="fill:#4d421b; stroke:none;" d="M402 433L402 435C403.635 434.455 403.455 434.635 404 433L402 433M592 434L593 435L592 434z"/>
<path style="fill:#291939; stroke:none;" d="M70 436C70.3603 444.265 74.0531 450.53 77.0772 458C81.7177 469.463 86.1642 481.233 92.3372 492C95.7639 497.977 100.545 503.079 104.071 509C108.497 516.432 110.88 525.458 117.326 531.62C121.851 535.947 129.007 538.577 135 540L132 532C127.721 531.53 125.852 528.349 123.424 525C119.358 519.389 115.109 513.873 111.424 508C104.831 497.491 96.6932 488.012 90.8889 477C83.7567 463.468 78.4218 448.682 70 436z"/>
<path style="fill:#ae8646; stroke:none;" d="M564 437C564.684 438.58 564.805 438.777 566 440C565.316 438.42 565.195 438.223 564 437z"/>
<path style="fill:#4d421b; stroke:none;" d="M600.333 437.667C600.278 437.722 600.222 438.778 600.667 438.333C600.722 438.278 600.778 437.222 600.333 437.667z"/>
<path style="fill:#050308; stroke:none;" d="M336 459C340.109 458.185 343.359 456.01 347 454C345.341 453.594 344.758 453.691 343 454C345.525 448.754 348.575 446.789 354 445L355 446C353.451 448.136 352.136 449.451 350 451C354.388 452.036 359.369 449.96 362.961 447.367C364.837 446.011 366.693 443.339 369.129 443.032C371.327 442.754 373.373 444.821 375 446L376 445C363.9 429.068 340.505 443.794 336 459M156 441C156.032 443.875 155.792 446.074 158 448L155 452C159.641 459.246 158.84 469.726 160.895 478C162.242 483.426 165.44 490.425 165.229 495.999C164.997 502.13 156.023 506.333 162.79 512.397C166.946 516.12 175.939 513.042 181 513C180.185 506.537 176.816 500.809 174 495L176 495L172 485C171.324 487.163 171.613 488.732 172 491C163.477 483.349 163.271 466.794 161.261 456C160.211 450.364 160.657 444.879 156 441z"/>
<path style="fill:#978136; stroke:none;" d="M343 453C348.289 452.524 352.503 450.873 355 446L354 445C349.003 446.389 345.529 448.381 343 453z"/>
<path style="fill:#4d421b; stroke:none;" d="M349 446L350 447L349 446z"/>
<path style="fill:#050308; stroke:none;" d="M356 464C359.201 463.796 361.949 462.953 365 462C363.104 469.181 369.55 472.016 376 470.383C379.988 469.374 382.773 466.771 386.285 464.89C393.757 460.892 401.588 458.672 403 449L411 448C401.734 444.103 396.749 449.781 388.424 451.898C385.05 452.756 381.427 451.782 378 452.34C371.528 453.392 359.784 458.613 356 464z"/>
<path style="fill:#8e4e48; stroke:none;" d="M569 446C568.954 448.069 568.95 448.265 570 450C570.184 447.777 570.24 447.81 569 446z"/>
<path style="fill:#332b12; stroke:none;" d="M346.333 447.667C346.278 447.722 346.222 448.778 346.667 448.333C346.722 448.278 346.778 447.222 346.333 447.667z"/>
<path style="fill:#050308; stroke:none;" d="M562 449L562 451C564.882 451.26 567.395 451.778 569.995 453.139C573.76 455.109 575.678 458.703 579.129 460.912C585.133 464.754 594.685 464.7 597 457C594.253 456.747 592.58 457.015 590 458C591.506 458.683 592.315 458.826 594 459C587.844 462.165 584.193 459.767 578 458L580 454C582.667 455.003 585.175 455.621 588 456C583.772 451.989 580.105 453.707 575 452.555C570.301 451.495 567.04 449.118 562 449z"/>
<path style="fill:#4d421b; stroke:none;" d="M351 450L352 451L351 450z"/>
<path style="fill:#050308; stroke:none;" d="M348 452L349 453L348 452z"/>
<path style="fill:#4d421b; stroke:none;" d="M343.667 453.333C343.222 453.778 344.278 453.722 344.333 453.667C344.778 453.222 343.722 453.278 343.667 453.333z"/>
<path style="fill:#978136; stroke:none;" d="M372 460C377.103 459.672 380.778 458.001 384 454C379.4 454.689 374.641 455.971 372 460z"/>
<path style="fill:#7a6f29; stroke:none;" d="M377 460C378.58 459.316 378.777 459.195 380 458C378.42 458.684 378.223 458.805 377 460z"/>
<path style="fill:#050308; stroke:none;" d="M535 460C540.113 466.531 549.583 468.375 552 477C561.081 477.925 564.339 488.93 574 490C573.248 485.557 572.041 481.562 572 477C574.939 479.104 577.828 481.349 581 483.096C583.203 484.31 585.592 485.36 588 486.096C595.057 488.25 600.789 484.685 597.712 477C595.67 471.899 591.111 468.166 586 466.333C580.272 464.279 572.403 466.717 567 469C568.253 472.886 570.029 475.82 570 480C564.263 476.085 559.145 471.652 554 467C555.958 467.7 556.949 467.939 559 468C553.231 461.789 543.421 457.639 535 460z"/>
<path style="fill:#332b12; stroke:none;" d="M370 459L369 461C370.263 460.029 370.392 460.306 370 459z"/>
<path style="fill:#7a6f29; stroke:none;" d="M370 462L377 461C374.112 459.653 371.943 459.33 370 462z"/>
<path style="fill:#050308; stroke:none;" d="M416 484C419.365 484.273 422.574 486.966 425.985 485.998C434.659 483.537 434.561 472.176 431 466C433.179 464.461 433.573 463.645 434 461C424.552 465.328 418.108 473.947 416 484M455 464C455.831 468.545 455.359 472.447 455 477C459.044 474.141 467.002 466.504 458 465C459.902 464.196 460.945 463.951 463 464C460.664 460.543 458.17 462.104 455 464M497 461C497.57 469.504 504.595 477.75 510 484C504.62 481.44 500.103 478.364 500 472L499 471C489.901 474.47 489.637 494.005 492 502C494.219 498.815 492.917 495.736 493.184 492C493.596 486.247 495.234 480.687 496 475C500.076 481.395 504.949 483.425 510.7 487.814C513.423 489.892 515.336 492.833 518 495C519.397 485.476 514.994 477.3 509.282 470C505.637 465.342 503.252 461.472 497 461z"/>
<path style="fill:#978136; stroke:none;" d="M531 461C532.854 468.124 542.154 478.27 550 477C545.174 470.148 538.504 464.705 531 461z"/>
<path style="fill:#8e4e48; stroke:none;" d="M534.667 463.333C534.222 463.778 535.278 463.722 535.333 463.667C535.778 463.222 534.722 463.278 534.667 463.333z"/>
<path style="fill:#897631; stroke:none;" d="M453 465C450.921 470.001 448.435 474.754 447 480C450.173 477.674 451.508 473.589 453 470C454.186 471.186 454.528 471.584 455 473C456.077 470.244 455.532 467.893 455 465L453 465z"/>
<path style="fill:#050308; stroke:none;" d="M467 465C464.624 474.185 463.606 484.509 464.019 493.999C464.282 500.025 468.574 502.498 473 498C469.874 495.321 466.163 490.403 465.951 486.048C465.612 479.082 473.75 483.549 476 486L478 483C479.114 486.054 479.833 488.748 480 492C484.537 485.632 482.302 471.032 474 481C471.885 479.427 470.53 478.648 468 478L469 465L467 465z"/>
<path style="fill:#ae8646; stroke:none;" d="M612 465C612.77 467.718 614.873 472.563 618 470C622.343 472.157 626.022 475.431 631 475C627.474 468.903 618.688 466.152 612 465z"/>
<path style="fill:#291939; stroke:none;" d="M452 466L453 467L452 466z"/>
<path style="fill:#4d421b; stroke:none;" d="M455.333 466.667C455.278 466.722 455.222 467.778 455.667 467.333C455.722 467.278 455.778 466.222 455.333 466.667M533 466L534 467L533 466z"/>
<path style="fill:#050308; stroke:none;" d="M618 466C626.636 472.529 640.904 472.2 645 484C631.154 484.002 619.933 481.016 607 476L606 480C618.317 479.644 631.197 491.621 643.941 486.258C649.797 483.793 646.309 478.211 642.956 475.224C636.533 469.5 626.458 466.369 618 466M431 495C429.406 493.703 428.982 493.465 427 493L426 500C430.161 499.357 432.178 497.782 434 494L438 498C430.083 502.998 430.001 514.594 430 523C433.785 520.614 433.929 516.954 435.468 513C437.445 507.918 439.993 503.085 442 498C433.393 490.89 441.87 478.566 448 472C445.582 476.59 442.682 480.784 442 486C448.607 483.959 449.979 473.064 452 467C440.768 470.728 435.876 485.154 431 495z"/>
<path style="fill:#634928; stroke:none;" d="M554 467C555.223 468.195 555.42 468.316 557 469C555.777 467.805 555.58 467.684 554 467z"/>
<path style="fill:#897631; stroke:none;" d="M520 473C524.358 476.099 528.83 475.999 534 476C531.924 466.516 526.684 468.273 520 473z"/>
<path style="fill:#332b12; stroke:none;" d="M558.667 468.333C558.222 468.778 559.278 468.722 559.333 468.667C559.778 468.222 558.722 468.278 558.667 468.333z"/>
<path style="fill:#645822; stroke:none;" d="M622 468L623 469L622 468z"/>
<path style="fill:#332b12; stroke:none;" d="M424 469C425.248 469.685 425.548 469.749 427 470C425.752 469.315 425.452 469.251 424 469z"/>
<path style="fill:#7a6f29; stroke:none;" d="M556 469C559.742 473.044 563.471 476.884 569 478C568.818 475.276 568.265 473.417 567 471L556 469M424 472L427 471C425.222 470.045 424.979 470.234 424 472z"/>
<path style="fill:#978136; stroke:none;" d="M428 483C428.789 481.702 429.741 480.433 430.194 478.955C430.486 478.005 430.829 477.015 430.809 476.003C430.627 466.718 419.976 473.557 424.562 480.576C425.381 481.828 426.772 482.311 428 483z"/>
<path style="fill:#634928; stroke:none;" d="M450 470L451 471L450 470z"/>
<path style="fill:#ae8646; stroke:none;" d="M453 470C449.684 475.703 443.759 484.755 448 491C451.521 485.611 457.497 476.029 453 470z"/>
<path style="fill:#9b773f; stroke:none;" d="M618 470L617 473C622.094 476.773 626.885 481.051 633 483L632 481L636 482L636 478C634.051 477.064 633.45 476.608 632 475C633.801 475.562 635.122 475.824 637 476C634.78 474.276 632.606 473.05 630 472C630 473.797 630.014 473.521 631 475C626.26 474.592 622.471 471.561 618 470z"/>
<path style="fill:#4d421b; stroke:none;" d="M627 470L628 471L627 470z"/>
<path style="fill:#8e4e48; stroke:none;" d="M567.333 471.667C567.278 471.722 567.222 472.778 567.667 472.333C567.722 472.278 567.778 471.222 567.333 471.667z"/>
<path style="fill:#7d2b4f; stroke:none;" d="M629.667 471.333C629.222 471.778 630.278 471.722 630.333 471.667C630.778 471.222 629.722 471.278 629.667 471.333z"/>
<path style="fill:#332b12; stroke:none;" d="M559 472L560 473L559 472z"/>
<path style="fill:#978136; stroke:none;" d="M596 480L596 478C591.681 475.286 587.067 473.509 582.001 472.685C579.915 472.346 576.39 472.184 575.921 475.016C575.541 477.317 578.342 478.452 580.019 479.12C585.209 481.186 590.762 481.995 596 480z"/>
<path style="fill:#7d2b4f; stroke:none;" d="M632 472L633 473L632 472z"/>
<path style="fill:#8e4e48; stroke:none;" d="M633 473C634.543 474.267 635.048 474.489 637 475C635.542 473.919 634.752 473.564 633 473z"/>
<path style="fill:#7d2b4f; stroke:none;" d="M569 474C568.816 476.111 568.762 477.905 569 480C570.202 477.596 570.336 476.314 569 474z"/>
<path style="fill:#332b12; stroke:none;" d="M431.333 475.667C431.278 475.722 431.222 476.778 431.667 476.333C431.722 476.278 431.778 475.222 431.333 475.667z"/>
<path style="fill:#4d421b; stroke:none;" d="M574 475L575 476L574 475z"/>
<path style="fill:#8e4e48; stroke:none;" d="M632 475C633.545 477.369 634.214 477.458 637 477C635.352 476.076 633.825 475.551 632 475z"/>
<path style="fill:#7d2b4f; stroke:none;" d="M637 475C636.229 477.859 635.465 480.42 634 483C637.657 484.081 641.199 484 645 484C644.016 479.224 641.412 476.885 637 475z"/>
<path style="fill:#291939; stroke:none;" d="M454.333 476.667C454.278 476.722 454.222 477.778 454.667 477.333C454.722 477.278 454.778 476.222 454.333 476.667z"/>
<path style="fill:#4d421b; stroke:none;" d="M531 476C532.248 476.685 532.548 476.749 534 477C532.752 476.315 532.452 476.251 531 476z"/>
<path style="fill:#332b12; stroke:none;" d="M567 478L568 479L567 478z"/>
<path style="fill:#634928; stroke:none;" d="M578 478L579 479L578 478z"/>
<path style="fill:#4d421b; stroke:none;" d="M429 480L430 481L429 480M594 480L595 481L594 480z"/>
<path style="fill:#7d2b4f; stroke:none;" d="M630.667 480.333C630.222 480.778 631.278 480.722 631.333 480.667C631.778 480.222 630.722 480.278 630.667 480.333z"/>
<path style="fill:#897631; stroke:none;" d="M468 481C466.671 483.75 466.154 485.95 466 489C468.182 488.405 468.93 488.242 471 489C473.375 488.466 474.625 488.466 477 489C477.925 486.66 478.228 485.47 478 483L476 486C473.947 482.972 471.422 482.135 468 481z"/>
<path style="fill:#8e4e48; stroke:none;" d="M632 481L634 485C634.369 482.777 633.86 482.266 632 481z"/>
<path style="fill:#050308; stroke:none;" d="M371 520C370.834 509.24 383.328 499.337 390.169 492.039C393.003 489.017 395.812 487.05 397 483C394.531 483.426 392.355 484.132 390 485C390 483.203 389.986 483.478 389 482C382.85 484.46 380.592 491.058 376.536 496C374.482 498.503 371.389 500.902 370.233 504C369.5 505.965 370.202 507.985 369.996 510C369.572 514.15 366.784 517.232 371 520z"/>
<path style="fill:#ff0101; stroke:none;" d="M426 482L427 483L426 482z"/>
<path style="fill:#4d421b; stroke:none;" d="M466.333 482.667C466.278 482.722 466.222 483.778 466.667 483.333C466.722 483.278 466.778 482.222 466.333 482.667M446 483L447 484L446 483z"/>
<path style="fill:#645822; stroke:none;" d="M465 483L465 487C465.71 485.24 465.71 484.76 465 483z"/>
<path style="fill:#332b12; stroke:none;" d="M475 484L476 485L475 484z"/>
<path style="fill:#7a6f29; stroke:none;" d="M379 494C380.579 491.348 382.033 488.932 383 486C377.568 486.607 374.15 489.616 379 494z"/>
<path style="fill:#ae8646; stroke:none;" d="M478 486C476.662 491.298 478 497.477 478 503L480 503C480 497.331 480.732 491.139 478 486z"/>
<path style="fill:#7a6f29; stroke:none;" d="M479 486L479 490C479.71 488.241 479.71 487.759 479 486z"/>
<path style="fill:#050308; stroke:none;" d="M528 486C528.61 497.283 541.393 505.157 551 509C550.333 506.874 549.959 505.219 550 503C546.755 500.709 544.291 498.245 542 495L547 493C545.465 490.078 540.675 486.035 538.622 491.152C537.558 493.803 538.985 496.6 540 499C534.636 495.133 532.111 490.82 528 486z"/>
<path style="fill:#978136; stroke:none;" d="M467 488C467.893 491.451 469.65 494.68 471 498C473.038 497.82 473.448 497.836 475 499C476.246 495.822 478.757 485.228 472 489C469.9 488.115 469.26 487.965 467 488z"/>
<path style="fill:#332b12; stroke:none;" d="M382 488L383 489L382 488z"/>
<path style="fill:#8e4e48; stroke:none;" d="M445 488L445 494C446.766 491.58 446.766 490.42 445 488M374 489L374 493C375.243 491.097 375.243 490.903 374 489z"/>
<path style="fill:#7a6f29; stroke:none;" d="M468.333 491.667C468.278 491.722 468.222 492.778 468.667 492.333C468.722 492.278 468.778 491.222 468.333 491.667z"/>
<path style="fill:#9b773f; stroke:none;" d="M365 507C370.927 504.234 376.269 498.355 378 492C370.391 493.814 368.124 500.541 365 507z"/>
<path style="fill:#4d421b; stroke:none;" d="M379 492L380 493L379 492z"/>
<path style="fill:#050308; stroke:none;" d="M477 492L477 496C477.71 494.24 477.71 493.76 477 492z"/>
<path style="fill:#ae8646; stroke:none;" d="M544 494L544 496L553 503C552.812 498.898 551.906 495.636 550 492L544 494z"/>
<path style="fill:#050308; stroke:none;" d="M411 513C414.259 510.34 419.494 508.063 421.91 504.701C424.218 501.491 424.1 496.736 425 493C417.4 495.152 412.316 505.62 411 513z"/>
<path style="fill:#7a6f29; stroke:none;" d="M469.333 493.667C469.278 493.722 469.222 494.778 469.667 494.333C469.722 494.278 469.778 493.222 469.333 493.667z"/>
<path style="fill:#050308; stroke:none;" d="M554 493C557.277 499.72 565.416 503.923 572 507L570 510C575.003 510.43 580.15 512.937 585 512C583.488 507.638 577.174 498.778 573 505C566.842 500.925 560.658 496.164 554 493z"/>
<path style="fill:#4d421b; stroke:none;" d="M371 494L372 495L371 494z"/>
<path style="fill:#332b12; stroke:none;" d="M476 494L476 497C476.696 495.446 476.696 495.554 476 494z"/>
<path style="fill:#7a6f29; stroke:none;" d="M542 495C542.936 496.949 543.392 497.55 545 499C544.326 496.703 544.035 496.226 542 495z"/>
<path style="fill:#4d421b; stroke:none;" d="M376 496L377 497L376 496z"/>
<path style="fill:#291939; stroke:none;" d="M369 497L370 498L369 497z"/>
<path style="fill:#4d421b; stroke:none;" d="M375 497L376 498L375 497M473.333 497.667C473.278 497.722 473.222 498.778 473.667 498.333C473.722 498.278 473.778 497.222 473.333 497.667z"/>
<path style="fill:#050308; stroke:none;" d="M501 497L501 499L503 499L503 497L501 497z"/>
<path style="fill:#978136; stroke:none;" d="M545 497C546.273 501.44 549.17 503.596 553 506C551.742 501.52 549.183 498.957 545 497z"/>
<path style="fill:#291939; stroke:none;" d="M368.333 498.667C368.278 498.722 368.222 499.778 368.667 499.333C368.722 499.278 368.778 498.222 368.333 498.667z"/>
<path style="fill:#645822; stroke:none;" d="M374 498L375 499L374 498z"/>
<path style="fill:#050308; stroke:none;" d="M367 500C365.814 501.186 365.472 501.584 365 503C366.478 503.986 366.203 504 368 504C367.826 502.315 367.683 501.506 367 500z"/>
<path style="fill:#8e4e48; stroke:none;" d="M478 503L478 506L480 506L480 503L478 503z"/>
<path style="fill:#050308; stroke:none;" d="M501 513L502 514C505.318 512.078 507.723 510.086 510 507C513.649 511.452 516.02 516.308 517 522C515.44 519.732 514.215 517.47 513 515C510.767 514.812 508.207 513.427 505.99 513.873C499.992 515.082 496.811 524.802 496 530C493.282 525.378 486.882 516.708 490.024 511.225C491.113 509.325 493.277 508.237 495 507C488.355 505.386 485.191 510.736 485.181 517C485.165 526.778 491.203 538.79 496.157 546.96C500.981 554.914 507.62 552.679 509 544C506.384 545.761 504.951 548.506 503 551C501.873 547.368 499.386 544.897 499 541C495.924 536.559 499.952 529.346 500 524C501.642 525.681 502.978 526.833 505 528C506.029 525.387 506.93 523.881 509 522C509.401 525.111 509.994 528.031 511 531C512.146 528.194 511.692 525.929 511 523C516.731 525.227 524.72 527.595 528 533C532.185 532.345 535.859 533.443 540 534C540.34 541.924 543.867 549.961 537 556C536.529 551.915 536.804 548.937 538 545L537 544L535 544L533 548C530.846 545.162 529.44 543.07 526 542C527.39 549.014 531.815 555.759 535.209 562C538.948 568.877 541.843 575.985 545.259 583C547.421 587.438 549.461 594.088 555 594C549.972 581.923 544.151 569.539 538 558C546.629 552.534 543.111 541.159 541 533L545 532C547.669 537.732 552.891 543.207 558.004 546.941C559.372 547.941 564.253 551.367 565.503 548.381C566.626 545.701 560.807 539.092 560 536C561.413 537.065 562.3 537.542 564 538C562.685 532.468 559.002 528.597 554 525.919C550.696 524.15 546.601 523.843 545.028 519.941C543.796 516.886 545.091 513.939 546 511C537.289 516.089 545.208 525.846 548 532C542.545 528.587 539.403 522.403 533.911 519.233C530.29 517.144 527.066 517.657 526.148 521.975C525.88 523.236 526.015 524.73 526 526C524.068 525.122 522.23 524.391 520.93 522.606C516.65 516.73 515.827 499.898 505.059 508.61C503.419 509.937 502.268 511.344 501 513z"/>
<path style="fill:#ae8646; stroke:none;" d="M421 506C418.676 507.416 416.175 508.607 414.003 510.261C410.374 513.025 404.848 522.364 413.986 522.364C420.22 522.364 422.73 510.434 421 506z"/>
<path style="fill:#897631; stroke:none;" d="M417.667 507.333C417.222 507.778 418.278 507.722 418.333 507.667C418.778 507.222 417.722 507.278 417.667 507.333z"/>
<path style="fill:#4d421b; stroke:none;" d="M419 507L420 508L419 507M413 510L414 511L413 510z"/>
<path style="fill:#050308; stroke:none;" d="M561 510C561.617 512.704 562.544 514.63 564 517L560 517L560 519C566.414 519.993 568.766 525.148 572.378 530C576.563 535.621 581.418 541.315 587 545.606C587.916 546.31 588.923 547.081 589.999 547.528C599.745 551.573 595.511 540.323 593 536C592.228 537.844 591.76 541.679 588.907 540.793C581.366 538.452 582.465 527.513 579.062 522.094C576.169 517.485 571.522 517.669 567.188 515.488C564.662 514.216 563.279 511.581 561 510z"/>
<path style="fill:#332b12; stroke:none;" d="M412 511L413 512L412 511z"/>
<path style="fill:#8e4e48; stroke:none;" d="M409.667 513.333C409.222 513.778 410.278 513.722 410.333 513.667C410.778 513.222 409.722 513.278 409.667 513.333z"/>
<path style="fill:#897631; stroke:none;" d="M533 516C535.737 522.142 541.292 529.174 548 531C545.101 524.783 539.065 519.146 533 516z"/>
<path style="fill:#332b12; stroke:none;" d="M534 516L535 517L534 516z"/>
<path style="fill:#050308; stroke:none;" d="M535 516L536 517L535 516M469 517C468.694 524.122 467.997 529.91 469.556 536.999C470.003 539.033 470.615 543.636 473.741 543.079C475.927 542.689 475.926 539.654 475.796 537.995C475.439 533.437 473.884 527.574 470 525C470.81 522.271 470.979 519.85 471 517L469 517M536 517L537 518L536 517z"/>
<path style="fill:#ae8646; stroke:none;" d="M579 520C580.078 523.107 581.082 524.483 584 526C582.717 523.148 581.721 521.535 579 520z"/>
<path style="fill:#897631; stroke:none;" d="M507 522C505.717 526.065 505.397 529.775 506 534C504.814 532.964 504.396 532.661 503 532C501.496 534.673 500.535 536.981 500 540C499.281 535.448 500.678 532.155 504 529C498.881 527.823 495.429 537.827 499 541C498.567 545.541 501 548.076 505 550C506.532 546.665 509.791 543.3 510.687 539.871C512.142 534.302 509.706 527.56 509 522L507 522z"/>
<path style="fill:#4d421b; stroke:none;" d="M500 524L501 525L500 524z"/>
<path style="fill:#291939; stroke:none;" d="M580.333 524.667C580.278 524.722 580.222 525.778 580.667 525.333C580.722 525.278 580.778 524.222 580.333 524.667z"/>
<path style="fill:#7a6f29; stroke:none;" d="M500 525L500 530C501.255 528.25 501.614 527.143 502 525L500 525z"/>
<path style="fill:#332b12; stroke:none;" d="M509 525L510 526L509 525z"/>
<path style="fill:#9b773f; stroke:none;" d="M581 525C581.196 529.21 581.858 532.096 585 535C584.047 531.509 582.935 528.061 581 525z"/>
<path style="fill:#7a6f29; stroke:none;" d="M505 526L505 529C505.696 527.446 505.696 527.554 505 526z"/>
<path style="fill:#897631; stroke:none;" d="M582 526C582.935 529.992 583.645 535.479 585.882 538.937C588.227 542.561 591.035 542.428 593 539C590.276 536.976 585.071 532.673 587 529C585.283 527.16 584.434 526.651 582 526z"/>
<path style="fill:#050308; stroke:none;" d="M452 527C449.855 529.335 447.944 530.95 447 534C448.797 534 448.522 533.986 450 533C451.404 538.697 451.384 545.933 457 549L458 548C456.52 540.847 453.403 534.403 454 527L452 527z"/>
<path style="fill:#332b12; stroke:none;" d="M502.667 527.333C502.222 527.778 503.278 527.722 503.333 527.667C503.778 527.222 502.722 527.278 502.667 527.333z"/>
<path style="fill:#b8a33f; stroke:none;" d="M504 528C500.553 531.541 499.401 535.124 499 540C500.686 537.495 501.85 534.795 503 532C504.635 532.545 504.455 532.365 505 534C505.736 531.567 505.305 530.181 504 528z"/>
<path style="fill:#4d421b; stroke:none;" d="M544.333 529.667C544.278 529.722 544.222 530.778 544.667 530.333C544.722 530.278 544.778 529.222 544.333 529.667z"/>
<path style="fill:#ae8646; stroke:none;" d="M585 529C586.707 533.072 588.503 536.255 592 539C590.677 534.823 588.881 531.186 585 529z"/>
<path style="fill:#4d421b; stroke:none;" d="M510.333 530.667C510.278 530.722 510.222 531.778 510.667 531.333C510.722 531.278 510.778 530.222 510.333 530.667M547 531L548 532L547 531M498 533L499 534L498 533z"/>
<path style="fill:#7a6f29; stroke:none;" d="M583 534L584 538C584.393 536.076 584.146 535.641 583 534z"/>
<path style="fill:#050308; stroke:none;" d="M590 534L591 535L590 534z"/>
<path style="fill:#332b12; stroke:none;" d="M591.333 535.667C591.278 535.722 591.222 536.778 591.667 536.333C591.722 536.278 591.778 535.222 591.333 535.667z"/>
<path style="fill:#645822; stroke:none;" d="M560 536C560.53 539.316 561.102 541.23 564 543L565 538C562.975 537.507 561.601 537.2 560 536z"/>
<path style="fill:#7a6f29; stroke:none;" d="M563 540L563 544C566.891 544.886 568.341 543.952 569 540L563 540z"/>
<path style="fill:#4d421b; stroke:none;" d="M507.667 543.333C507.222 543.778 508.278 543.722 508.333 543.667C508.778 543.222 507.722 543.278 507.667 543.333z"/>
<path style="fill:#332b12; stroke:none;" d="M565 545L566 546L565 545M503 550L504 551L503 550z"/>
</svg>
