<svg version="1.0" xmlns="http://www.w3.org/2000/svg"
 width="100.000000pt" height="100.000000pt" viewBox="0 0 100.000000 100.000000"
 preserveAspectRatio="xMidYMid meet">

<g transform="translate(0.000000,100.000000) scale(0.100000,-0.100000)"
fill="#000000" stroke="none">
<path d="M195 808 c-18 -78 -85 -425 -85 -444 0 -18 7 -23 42 -29 107 -16 193
-56 273 -125 62 -54 86 -52 162 8 88 71 135 90 280 118 16 3 23 11 23 27 0 19
-66 366 -85 445 -4 16 -13 22 -34 22 -32 0 -50 -18 -111 -108 l-35 -52 -125 0
-125 0 -35 52 c-61 90 -79 108 -111 108 -21 0 -30 -6 -34 -22z m189 -349 c35
-28 33 -39 -8 -39 -32 0 -86 32 -86 51 0 17 67 9 94 -12z m326 12 c0 -19 -54
-51 -86 -51 -41 0 -43 11 -8 39 27 21 94 29 94 12z m-164 -132 c3 -6 -5 -23
-20 -37 l-26 -27 -26 27 c-33 32 -24 48 26 48 21 0 42 -5 46 -11z"/>
</g>
</svg>
